<svg width="29" height="29" viewBox="0 0 29 29" fill="none" xmlns="http://www.w3.org/2000/svg">
<g clip-path="url(#clip0_61_2584)">
<path d="M14.0142 27.0606C21.2708 27.0606 27.1534 21.178 27.1534 13.9214C27.1534 6.66485 21.2708 0.782227 14.0142 0.782227C6.75762 0.782227 0.875 6.66485 0.875 13.9214C0.875 21.178 6.75762 27.0606 14.0142 27.0606Z" fill="#EC407A"/>
<path d="M14.0151 0C6.28754 0 0 6.28755 0 14.0152C0 21.7428 6.28754 28.0303 14.0151 28.0303C21.7427 28.0303 28.0303 21.7428 28.0303 14.0152C28.0303 6.28755 21.7427 0 14.0151 0ZM26.2731 14.1203C23.3054 13.3372 20.2624 13.2461 17.363 13.8435C16.9671 12.8554 16.5396 11.8831 16.0806 10.9231C18.7032 9.69673 21.1278 8.03419 23.2546 5.97921C25.1309 8.13229 26.2784 10.9388 26.2784 14.0152C26.2784 14.0502 26.2731 14.0835 26.2731 14.1203ZM22.016 4.74238C20.0294 6.6607 17.7694 8.22339 15.3203 9.36563C14.0116 6.86042 12.4805 4.46733 10.7479 2.20739C11.7902 1.91832 12.8817 1.75189 14.0151 1.75189C17.0722 1.75189 19.8665 2.88362 22.016 4.74238ZM9.01699 2.82756C10.7952 5.091 12.3561 7.50161 13.6858 10.0261C10.0068 11.4311 6.0125 11.9707 2.01292 11.5029C2.82405 7.62074 5.47992 4.41477 9.01699 2.82756ZM1.75189 14.0152C1.75189 13.7524 1.77467 13.4948 1.79219 13.2373C2.82931 13.3599 3.86643 13.4405 4.90004 13.4405C8.19711 13.4405 11.4364 12.7958 14.4724 11.6133C14.8928 12.4893 15.2888 13.3775 15.6549 14.2779C11.3488 15.5708 7.51212 18.3283 4.92983 22.2228C2.96245 20.0469 1.75189 17.1721 1.75189 14.0152ZM6.21046 23.4666C8.58603 19.7316 12.2089 17.0985 16.2856 15.9072C17.3928 18.9555 18.1899 22.1212 18.6542 25.3604C17.2229 25.9491 15.6567 26.2784 14.0151 26.2784C11.0527 26.2784 8.332 25.222 6.21046 23.4666ZM20.2974 24.5265C19.8157 21.4397 19.0518 18.4177 18.006 15.5008C20.6531 15.0032 23.4228 15.1206 26.1207 15.8827C25.5549 19.5546 23.3632 22.687 20.2974 24.5265Z" fill="#C2185B"/>
</g>
<defs>
<clipPath id="clip0_61_2584">
<rect width="28.0303" height="28.0303" fill="white"/>
</clipPath>
</defs>
</svg>
