<svg width="29" height="29" viewBox="0 0 29 29" fill="none" xmlns="http://www.w3.org/2000/svg">
<g clip-path="url(#clip0_61_2591)">
<path d="M24.5265 0H3.50379C1.57145 0 0 1.57145 0 3.50379V24.5265C0 26.4589 1.57145 28.0303 3.50379 28.0303H24.5265C26.4588 28.0303 28.0303 26.4589 28.0303 24.5265V3.50379C28.0303 1.57145 26.4588 0 24.5265 0Z" fill="#1976D2"/>
<path d="M23.6548 14.0153H19.2751V10.5115C19.2751 9.5445 20.0599 9.6356 21.027 9.6356H22.7789V5.25586H19.2751C16.3722 5.25586 14.0194 7.60865 14.0194 10.5115V14.0153H10.5156V18.3951H14.0194V28.0305H19.2751V18.3951H21.9029L23.6548 14.0153Z" fill="#FAFAFA"/>
</g>
<defs>
<clipPath id="clip0_61_2591">
<rect width="28.0303" height="28.0303" fill="white"/>
</clipPath>
</defs>
</svg>
