<svg width="29" height="29" viewBox="0 0 29 29" fill="none" xmlns="http://www.w3.org/2000/svg">
<g clip-path="url(#clip0_61_2581)">
<path d="M1.73993 1.90713C-0.462788 4.1951 -0.0119675 6.62556 -0.0119675 14.0092C-0.0119675 20.1408 -1.08179 26.2877 4.51726 27.7347C6.26566 28.1844 21.7571 28.1844 23.5031 27.7324C25.8343 27.1309 27.731 25.24 27.9903 21.943C28.0265 21.4828 28.0265 6.54381 27.9892 6.0743C27.7135 2.56234 25.5517 0.538315 22.7031 0.128371C22.0502 0.0337691 21.9194 0.00573879 18.5698 -0.000100855C6.68845 0.00573879 4.08396 -0.523333 1.73993 1.90713Z" fill="url(#paint0_linear_61_2581)"/>
<path d="M14.01 3.66721C9.7692 3.66721 5.74217 3.28997 4.20401 7.23757C3.56866 8.868 3.66092 10.9855 3.66092 14.0174C3.66092 16.6779 3.57566 19.1785 4.20401 20.7961C5.73867 24.746 9.7984 24.3676 14.0076 24.3676C18.0685 24.3676 22.2555 24.7904 23.8124 20.7961C24.4489 19.1493 24.3555 17.0634 24.3555 14.0174C24.3555 9.97403 24.5785 7.36371 22.6176 5.40393C20.6321 3.41845 17.947 3.66721 14.0053 3.66721H14.01ZM13.0826 5.5324C21.9285 5.51838 23.0544 4.53499 22.4331 18.1963C22.2123 23.028 18.5333 22.4977 14.0111 22.4977C5.76553 22.4977 5.52844 22.2618 5.52844 14.0127C5.52844 5.66788 6.18248 5.53707 13.0826 5.53006V5.5324ZM19.5343 7.25042C18.8487 7.25042 18.2927 7.80636 18.2927 8.49193C18.2927 9.1775 18.8487 9.73344 19.5343 9.73344C20.2198 9.73344 20.7758 9.1775 20.7758 8.49193C20.7758 7.80636 20.2198 7.25042 19.5343 7.25042ZM14.01 8.70216C11.0749 8.70216 8.69587 11.0824 8.69587 14.0174C8.69587 16.9524 11.0749 19.3315 14.01 19.3315C16.945 19.3315 19.3229 16.9524 19.3229 14.0174C19.3229 11.0824 16.945 8.70216 14.01 8.70216ZM14.01 10.5673C18.5707 10.5673 18.5766 17.4675 14.01 17.4675C9.45035 17.4675 9.44334 10.5673 14.01 10.5673Z" fill="white"/>
</g>
<defs>
<linearGradient id="paint0_linear_61_2581" x1="1.79368" y1="26.2399" x2="27.8449" y2="3.69286" gradientUnits="userSpaceOnUse">
<stop stop-color="#FFDD55"/>
<stop offset="0.5" stop-color="#FF543E"/>
<stop offset="1" stop-color="#C837AB"/>
</linearGradient>
<clipPath id="clip0_61_2581">
<rect width="28.0303" height="28.0303" fill="white"/>
</clipPath>
</defs>
</svg>
