<svg width="29" height="29" viewBox="0 0 29 29" fill="none" xmlns="http://www.w3.org/2000/svg">
<g clip-path="url(#clip0_61_2573)">
<path d="M24.208 -0.00488281H3.82231C1.71131 -0.00488281 0 1.70643 0 3.81743V24.2031C0 26.3141 1.71131 28.0254 3.82231 28.0254H24.208C26.319 28.0254 28.0303 26.3141 28.0303 24.2031V3.81743C28.0303 1.70643 26.319 -0.00488281 24.208 -0.00488281Z" fill="#0077B5"/>
<path d="M10.1099 7.64383C10.1099 8.11632 9.96982 8.5782 9.70731 8.97106C9.44481 9.36392 9.07171 9.67011 8.63519 9.85093C8.19867 10.0317 7.71833 10.0791 7.25492 9.98687C6.79151 9.8947 6.36584 9.66717 6.03174 9.33307C5.69764 8.99897 5.47011 8.5733 5.37794 8.10989C5.28576 7.64648 5.33307 7.16614 5.51388 6.72962C5.69469 6.2931 6.00089 5.91999 6.39375 5.65749C6.78661 5.39499 7.24849 5.25488 7.72098 5.25488C8.35457 5.25488 8.9622 5.50657 9.41022 5.95459C9.85823 6.4026 10.1099 7.01024 10.1099 7.64383Z" fill="white"/>
<path d="M9.57628 11.6198V22.1742C9.5767 22.252 9.56172 22.3292 9.53222 22.4013C9.50271 22.4733 9.45926 22.5388 9.40435 22.594C9.34944 22.6492 9.28416 22.6931 9.21226 22.7229C9.14037 22.7528 9.06327 22.7682 8.98541 22.7682H6.46746C6.3896 22.7684 6.31246 22.7533 6.24049 22.7236C6.16851 22.6939 6.10312 22.6502 6.04806 22.5952C5.993 22.5401 5.94937 22.4747 5.91967 22.4027C5.88997 22.3308 5.87479 22.2536 5.875 22.1758V11.6198C5.875 11.4627 5.93742 11.312 6.04853 11.2009C6.15964 11.0898 6.31033 11.0273 6.46746 11.0273H8.98541C9.14227 11.0278 9.29255 11.0904 9.40331 11.2014C9.51408 11.3125 9.57628 11.4629 9.57628 11.6198Z" fill="white"/>
<path d="M22.7167 17.1255V22.2347C22.7169 22.3063 22.7029 22.3772 22.6756 22.4434C22.6483 22.5095 22.6082 22.5697 22.5576 22.6203C22.507 22.6709 22.4469 22.711 22.3807 22.7383C22.3145 22.7656 22.2436 22.7796 22.172 22.7794H19.4645C19.3929 22.7796 19.322 22.7656 19.2558 22.7383C19.1897 22.711 19.1295 22.6709 19.0789 22.6203C19.0283 22.5697 18.9882 22.5095 18.9609 22.4434C18.9336 22.3772 18.9196 22.3063 18.9198 22.2347V17.2832C18.9198 16.5442 19.1364 14.047 16.988 14.047C15.3237 14.047 14.9845 15.7558 14.9176 16.5235V22.2347C14.9176 22.3778 14.8613 22.5151 14.7609 22.617C14.6604 22.719 14.5239 22.7773 14.3808 22.7794H11.7657C11.6943 22.7794 11.6235 22.7653 11.5575 22.7379C11.4916 22.7105 11.4316 22.6703 11.3812 22.6197C11.3307 22.5691 11.2907 22.5091 11.2635 22.443C11.2363 22.3769 11.2224 22.3061 11.2227 22.2347V11.5847C11.2224 11.5133 11.2363 11.4425 11.2635 11.3764C11.2907 11.3103 11.3307 11.2503 11.3812 11.1997C11.4316 11.1491 11.4916 11.1089 11.5575 11.0816C11.6235 11.0542 11.6943 11.0401 11.7657 11.0401H14.3808C14.5253 11.0401 14.6638 11.0974 14.766 11.1996C14.8681 11.3017 14.9255 11.4403 14.9255 11.5847V12.5053C15.5435 11.5784 16.4592 10.8633 18.4134 10.8633C22.7422 10.8633 22.7167 14.9054 22.7167 17.1255Z" fill="white"/>
</g>
<defs>
<clipPath id="clip0_61_2573">
<rect width="28.0303" height="28.0303" fill="white"/>
</clipPath>
</defs>
</svg>
