<svg width="29" height="29" viewBox="0 0 29 29" fill="none" xmlns="http://www.w3.org/2000/svg">
<g clip-path="url(#clip0_61_2587)">
<path d="M22.0338 0.000976562H5.95881C2.65706 0.000976562 -0.0195312 2.67757 -0.0195312 5.97932V22.0543C-0.0195312 25.3561 2.65706 28.0327 5.95881 28.0327H22.0338C25.3356 28.0327 28.0122 25.3561 28.0122 22.0543V5.97932C28.0122 2.67757 25.3356 0.000976562 22.0338 0.000976562Z" fill="#D42028"/>
<path fill-rule="evenodd" clip-rule="evenodd" d="M10.2364 7.25512C8.12328 8.09215 6.68853 9.70448 6.28732 11.8761C6.04117 13.2107 6.13473 14.6652 6.72352 15.9112C6.85477 16.188 7.01232 16.4548 7.19939 16.7013C7.29035 16.8218 7.38765 16.9368 7.49335 17.0459C7.68102 16.9787 7.86179 16.8953 8.03439 16.7977C8.74864 16.3945 9.27542 15.7736 9.88712 15.2517C7.84267 12.8831 10.0094 9.94836 12.7194 9.29411C15.2426 8.68589 18.662 9.73549 19.4274 12.3316C19.7437 13.4067 19.5366 14.5951 18.66 15.3736C18.2014 15.7811 17.6193 16.0502 17.0041 16.1599C16.6447 16.2237 16.276 16.2335 15.9125 16.1982C15.7101 16.1777 15.509 16.1435 15.311 16.0968C14.9753 16.018 14.6767 16.0296 14.6767 15.6676V11.4098C14.6767 11.1199 14.7051 11.1743 14.4647 11.1448C14.2747 11.1213 14.0852 11.1031 13.895 11.0877C13.2257 11.0356 12.5256 10.9994 11.8618 11.1138C11.6136 11.1567 11.5977 11.1167 11.5977 11.3861V13.6312C11.5977 15.2164 11.717 16.8201 11.6515 18.4028C11.6324 18.8744 11.6194 20.0062 11.0917 20.2397C10.48 20.5105 9.93924 19.9381 9.37478 19.8191C9.45239 20.6136 8.95542 22.1877 9.88132 22.5885C10.7305 22.956 11.7077 23.0931 12.603 22.7895C14.4786 22.1532 15.0851 20.0659 14.8473 18.3507C17.7426 19.2158 20.8678 17.7686 22.1056 15.1544C22.9875 13.2926 22.615 10.9806 21.2877 9.39746C18.8013 6.43169 13.7548 5.86283 10.2364 7.25512Z" fill="white"/>
</g>
<defs>
<clipPath id="clip0_61_2587">
<rect width="28.0303" height="28.0303" fill="white"/>
</clipPath>
</defs>
</svg>
