<svg width="24" height="24" viewBox="0 0 24 24" fill="none" xmlns="http://www.w3.org/2000/svg">
<path d="M14 16.0002C14 17.7702 13.23 19.3702 12 20.4602C10.94 21.4202 9.54 22.0002 8 22.0002C4.69 22.0002 2 19.3102 2 16.0002C2 13.9755 3.01397 12.1816 4.5554 11.0975C4.80358 10.923 5.1393 11.0424 5.27324 11.3146C6.21715 13.2334 7.95419 14.6701 10.02 15.2302C10.65 15.4102 11.31 15.5002 12 15.5002C12.4872 15.5002 12.9539 15.454 13.4074 15.3689C13.6958 15.3148 13.9828 15.4997 13.9955 15.7927C13.9985 15.8622 14 15.9316 14 16.0002Z" fill="white"/>
<path d="M18 8C18 8.78 17.85 9.53 17.58 10.21C16.89 11.95 15.41 13.29 13.58 13.79C13.08 13.93 12.55 14 12 14C11.45 14 10.92 13.93 10.42 13.79C8.59 13.29 7.11 11.95 6.42 10.21C6.15 9.53 6 8.78 6 8C6 4.69 8.69 2 12 2C15.31 2 18 4.69 18 8Z" fill="white"/>
<path d="M22.0001 15.9998C22.0001 19.3098 19.3101 21.9998 16.0001 21.9998C15.2556 21.9998 14.5394 21.8641 13.8812 21.6139C13.5625 21.4927 13.5031 21.0849 13.7249 20.826C14.8669 19.4936 15.5001 17.7858 15.5001 15.9998C15.5001 15.6598 15.4701 15.3198 15.4201 14.9998C15.3903 14.8153 15.4845 14.634 15.6479 14.5435C16.972 13.8105 18.0533 12.6873 18.7271 11.3151C18.861 11.0425 19.1969 10.9228 19.4453 11.0975C20.9864 12.1816 22.0001 13.9753 22.0001 15.9998Z" fill="white"/>
</svg>
