<svg width="24" height="24" viewBox="0 0 24 24" fill="none" xmlns="http://www.w3.org/2000/svg">
<g clip-path="url(#clip0_239_72)">
<mask id="mask0_239_72" style="mask-type:alpha" maskUnits="userSpaceOnUse" x="0" y="0" width="24" height="24">
<path d="M23 0H1C0.447715 0 0 0.447715 0 1V23C0 23.5523 0.447715 24 1 24H23C23.5523 24 24 23.5523 24 23V1C24 0.447715 23.5523 0 23 0Z" fill="#D9D9D9"/>
</mask>
<g mask="url(#mask0_239_72)">
<path d="M7.6417 20C7.4897 20 7.34812 19.9629 7.21695 19.8888C7.08579 19.8146 6.9857 19.71 6.9167 19.575L5.46784 16.9895C5.1987 16.5092 5.54584 15.9168 6.09639 15.9168C6.36486 15.9168 6.61106 16.066 6.73522 16.304L7.3417 17.4668C7.40954 17.6168 7.51137 17.7293 7.6472 17.8043C7.78304 17.8793 7.92562 17.9168 8.07495 17.9168H9.4167C9.5277 17.9168 9.62487 17.8751 9.7082 17.7918C9.79154 17.7084 9.8332 17.6112 9.8332 17.5C9.8332 17.3888 9.79154 17.2916 9.7082 17.2082C9.62487 17.1249 9.5277 17.0833 9.4167 17.0833H8.6759C8.30411 17.0833 7.96302 16.877 7.79032 16.5477L7.2582 15.5333C7.19037 15.3833 7.08854 15.2708 6.9527 15.1958C6.81687 15.1208 6.67429 15.0833 6.52495 15.0833H4.99496C4.636 15.0833 4.30459 14.8909 4.12658 14.5792L2.8917 12.4168C2.8627 12.3473 2.83737 12.2777 2.8157 12.2082C2.79404 12.1389 2.7832 12.0695 2.7832 12C2.7832 11.9626 2.80871 11.8587 2.85974 11.6881C2.88061 11.6183 2.90992 11.5513 2.94604 11.4881L4.12658 9.42085C4.30459 9.10914 4.636 8.91675 4.99496 8.91675H6.52495C6.67429 8.91675 6.81687 8.87925 6.9527 8.80425C7.08854 8.72925 7.19037 8.61675 7.2582 8.46675L7.79032 7.45225C7.96302 7.12301 8.30411 6.91675 8.6759 6.91675H9.4167C9.5277 6.91675 9.62487 6.87508 9.7082 6.79175C9.79154 6.70842 9.8332 6.61117 9.8332 6.5C9.8332 6.38883 9.79154 6.29158 9.7082 6.20825C9.62487 6.12492 9.5277 6.08325 9.4167 6.08325H8.07495C7.92562 6.08325 7.78304 6.12075 7.6472 6.19575C7.51137 6.27075 7.40954 6.38325 7.3417 6.53325L6.73522 7.69596C6.61106 7.93399 6.36486 8.08325 6.09639 8.08325C5.54584 8.08325 5.1987 7.4908 5.46784 7.01051L6.9167 4.425C6.9857 4.29 7.08579 4.18542 7.21695 4.11125C7.34812 4.03708 7.4897 4 7.6417 4H10.4167C10.6527 4 10.8506 4.07983 11.0104 4.2395C11.1701 4.39933 11.2499 4.59725 11.2499 4.83325V8.08325C11.2499 8.63554 10.8022 9.08325 10.2499 9.08325H9.3332C9.2222 9.08325 9.12504 9.12492 9.0417 9.20825C8.95837 9.29158 8.9167 9.38883 8.9167 9.5C8.9167 9.61117 8.95837 9.70842 9.0417 9.79175C9.12504 9.87508 9.2222 9.91675 9.3332 9.91675H10.2499C10.8022 9.91675 11.2499 10.3645 11.2499 10.9168V12.0833C11.2499 12.6355 10.8022 13.0833 10.2499 13.0833H9.50427C9.12392 13.0833 8.7765 12.8675 8.60789 12.5265L8.12495 11.55C8.05279 11.4 7.9477 11.2848 7.8097 11.2043C7.6717 11.1236 7.52679 11.0833 7.37495 11.0833H5.49995C5.38879 11.0833 5.29154 11.1249 5.2082 11.2083C5.12487 11.2916 5.0832 11.3888 5.0832 11.5C5.0832 11.6112 5.12487 11.7084 5.2082 11.7918C5.29154 11.8751 5.38879 11.9168 5.49995 11.9168H6.75168C7.12888 11.9168 7.47399 12.129 7.64415 12.4656L8.1417 13.45C8.21387 13.6 8.31895 13.7153 8.45695 13.7958C8.59495 13.8764 8.73987 13.9168 8.8917 13.9168H10.2499C10.8022 13.9168 11.2499 14.3645 11.2499 14.9168V19.1668C11.2499 19.4028 11.1701 19.6007 11.0104 19.7605C10.8506 19.9202 10.6527 20 10.4167 20H7.6417ZM14.1644 20C13.6602 20 13.229 19.8205 12.8707 19.4615C12.5123 19.1025 12.3332 18.6709 12.3332 18.1668C12.3332 17.8056 12.4248 17.4819 12.6082 17.1958C12.6763 17.0894 12.7526 16.9925 12.8368 16.905C13.0996 16.6321 13.3332 16.3025 13.3332 15.9237V8.07629C13.3332 7.69751 13.0996 7.36789 12.8368 7.09505C12.7526 7.00752 12.6763 6.91058 12.6082 6.80425C12.4248 6.51808 12.3332 6.197 12.3332 5.841C12.3332 5.33033 12.5128 4.89583 12.8722 4.5375C13.2315 4.17917 13.6635 4 14.1682 4C14.6727 4 15.1041 4.1795 15.4624 4.5385C15.8207 4.8975 15.9999 5.32908 15.9999 5.83325C15.9999 6.19442 15.9082 6.51808 15.7249 6.80425C15.6568 6.91058 15.5805 7.00752 15.4962 7.09505C15.2335 7.36789 14.9999 7.69751 14.9999 8.07628V8.43378C14.9999 9.21108 15.8479 9.69119 16.5144 9.29126L16.8117 9.1129C17.132 8.92068 17.293 8.55825 17.3879 8.19691C17.4631 7.91071 17.6102 7.65066 17.8292 7.41675C18.193 7.02775 18.6388 6.83325 19.1667 6.83325C19.6708 6.83325 20.1024 7.01292 20.4614 7.37225C20.8204 7.73158 20.9999 8.16358 20.9999 8.66825C20.9999 9.17275 20.8204 9.60417 20.4614 9.9625C20.1024 10.3208 19.6708 10.5 19.1667 10.5C18.9792 10.5 18.8045 10.4764 18.6427 10.4292C18.3515 10.3441 18.0292 10.3312 17.7693 10.4878L16.8634 11.0337C16.267 11.3931 16.2113 12.2368 16.7554 12.6715L18.107 13.7512C18.2924 13.8993 18.543 13.9255 18.7749 13.875C18.9027 13.8472 19.0333 13.8333 19.1667 13.8333C19.6708 13.8333 20.1024 14.0129 20.4614 14.3723C20.8204 14.7316 20.9999 15.1636 20.9999 15.6683C20.9999 16.1728 20.8204 16.6042 20.4614 16.9625C20.1024 17.3208 19.6708 17.5 19.1667 17.5C18.5722 17.5 18.0957 17.2723 17.7374 16.8168C17.5149 16.5338 17.384 16.2317 17.3446 15.9103C17.2988 15.5365 17.19 15.1514 16.8965 14.9156L16.6263 14.6985C15.9718 14.1727 14.9999 14.6385 14.9999 15.478V15.9593C14.9999 16.3325 15.2266 16.659 15.4831 16.9302C15.5641 17.0159 15.6378 17.1104 15.7042 17.2138C15.8847 17.4953 15.9749 17.8129 15.9749 18.1668C15.9749 18.6709 15.7992 19.1025 15.4479 19.4615C15.0964 19.8205 14.6686 20 14.1644 20Z" fill="white"/>
</g>
</g>
<defs>
<clipPath id="clip0_239_72">
<rect width="24" height="24" fill="white"/>
</clipPath>
</defs>
</svg>
