<svg width="479" height="180" viewBox="0 0 479 180" fill="none" xmlns="http://www.w3.org/2000/svg">
<rect x="8.09351" y="8.09326" width="148.288" height="148.288" rx="74.1441" fill="#FEC724"/>
<rect x="1.02883" y="1.02883" width="162.417" height="162.417" rx="81.2087" stroke="#FEC724" stroke-width="2.05765"/>
<path d="M99.5519 45.0713C113.007 42.7742 124.639 46.8221 134.156 56.7402C135.36 58.0165 136.454 59.4028 137.657 60.6426C138.568 61.5904 138.386 62.2471 137.439 63.0127C134.193 65.6381 130.984 68.2997 127.812 70.998C126.625 71.9969 123.806 73.7262 122.236 75.1885C120.936 73.2428 118.394 71.4116 117.793 75.0352C116.298 83.969 110.938 90.2779 102.223 92.6846C93.1071 95.2008 98.3844 108.191 93.1339 99.4043C92.2223 97.8728 91.6028 96.1584 90.837 94.5176C90.6184 94.1533 90.3265 93.8618 90.2169 93.7158C89.0136 97.034 88.0648 100.498 86.5333 103.67C83.5433 109.796 78.767 114.135 72.4952 116.979C67.5726 119.204 62.5039 120.225 57.1437 119.86C46.022 119.095 34.5351 112.312 30.0499 100.936C28.7372 97.5808 28.0084 94.0071 27.0968 90.543C26.6957 89.0479 27.3521 88.3913 29.0294 88.4277C33.9519 88.5371 38.8745 88.5007 43.797 88.4277C45.0003 88.4277 45.4379 88.7931 45.7296 89.96C46.0578 91.4914 46.6052 92.9865 47.298 94.3721C50.5434 100.68 60.8997 100.644 63.8898 95.5752C65.1659 93.4239 65.7491 91.163 65.8585 88.6836C66.0773 84.4902 66.0043 80.2966 66.6241 76.1396C67.317 71.3265 69.3227 66.9143 71.9845 62.7939C78.5116 52.7297 87.9927 47.0404 99.5519 45.0713ZM75.0646 78.7363C72.8494 78.7365 71.0538 80.5329 71.0538 82.748C71.0539 84.9631 72.8495 86.7587 75.0646 86.7588C77.2798 86.7588 79.0762 84.9632 79.0763 82.748C79.0763 80.5328 77.2798 78.7363 75.0646 78.7363ZM122.236 75.1885C123.147 76.5514 123.45 77.9701 122.046 77.6113C120.583 77.2373 121.056 76.2885 122.236 75.1885Z" fill="black"/>
<circle cx="111.045" cy="88.5844" r="21.4682" fill="#F5683A"/>
<circle cx="35.8718" cy="76.9932" r="9.67097" fill="#F5683A"/>
<path d="M179.292 75.9888C175.612 75.9888 172.829 74.9538 170.943 72.8838C169.057 70.7678 168.114 67.7548 168.114 63.8448V61.0848H175.29V64.3968C175.29 67.5248 176.601 69.0888 179.223 69.0888C180.511 69.0888 181.477 68.7208 182.121 67.9848C182.811 67.2028 183.156 65.9608 183.156 64.2588C183.156 62.2348 182.696 60.4638 181.776 58.9458C180.856 57.3818 179.154 55.5188 176.67 53.3568C173.542 50.5968 171.357 48.1128 170.115 45.9048C168.873 43.6509 168.252 41.1209 168.252 38.3149C168.252 34.4969 169.218 31.5529 171.15 29.4829C173.082 27.3669 175.888 26.3089 179.568 26.3089C183.202 26.3089 185.939 27.3669 187.779 29.4829C189.665 31.5529 190.608 34.5429 190.608 38.4529V40.4539H183.432V37.9699C183.432 36.3139 183.11 35.1179 182.466 34.3819C181.822 33.5999 180.879 33.2089 179.637 33.2089C177.107 33.2089 175.842 34.7499 175.842 37.8319C175.842 39.5799 176.302 41.2129 177.222 42.7309C178.188 44.2489 179.913 46.0888 182.397 48.2508C185.571 51.0108 187.756 53.5178 188.952 55.7718C190.148 58.0258 190.746 60.6708 190.746 63.7068C190.746 67.6628 189.757 70.6988 187.779 72.8148C185.847 74.9308 183.018 75.9888 179.292 75.9888ZM195.098 26.9989H202.688V75.2988H195.098V26.9989ZM208.373 26.9989H219.965C223.737 26.9989 226.566 28.0109 228.452 30.0349C230.338 32.0589 231.281 35.0259 231.281 38.9359V63.3618C231.281 67.2718 230.338 70.2388 228.452 72.2628C226.566 74.2868 223.737 75.2988 219.965 75.2988H208.373V26.9989ZM219.827 68.3988C221.069 68.3988 222.012 68.0308 222.656 67.2948C223.346 66.5588 223.691 65.3628 223.691 63.7068V38.5909C223.691 36.9349 223.346 35.7389 222.656 35.0029C222.012 34.2669 221.069 33.8989 219.827 33.8989H215.963V68.3988H219.827ZM236.404 26.9989H247.996C251.768 26.9989 254.597 28.0109 256.483 30.0349C258.369 32.0589 259.312 35.0259 259.312 38.9359V63.3618C259.312 67.2718 258.369 70.2388 256.483 72.2628C254.597 74.2868 251.768 75.2988 247.996 75.2988H236.404V26.9989ZM247.858 68.3988C249.1 68.3988 250.043 68.0308 250.687 67.2948C251.377 66.5588 251.722 65.3628 251.722 63.7068V38.5909C251.722 36.9349 251.377 35.7389 250.687 35.0029C250.043 34.2669 249.1 33.8989 247.858 33.8989H243.994V68.3988H247.858ZM264.435 26.9989H272.025V46.6638H280.167V26.9989H287.757V75.2988H280.167V53.5638H272.025V75.2988H264.435V26.9989ZM293.41 26.9989H301V75.2988H293.41V26.9989ZM304.683 26.9989H312.342L317.31 64.4658H317.448L322.416 26.9989H329.385L322.071 75.2988H311.997L304.683 26.9989ZM333.031 26.9989H340.621V75.2988H333.031V26.9989ZM346.305 26.9989H355.827L363.21 55.9098H363.348V26.9989H370.11V75.2988H362.313L353.205 40.0399H353.067V75.2988H346.305V26.9989ZM381.616 26.9989H391.897L399.763 75.2988H392.173L390.793 65.7078V65.8458H382.168L380.788 75.2988H373.75L381.616 26.9989ZM389.896 59.2908L386.515 35.4169H386.377L383.065 59.2908H389.896ZM407.248 54.7368L398.071 26.9989H406.144L411.319 44.7319H411.457L416.632 26.9989H424.015L414.838 54.7368V75.2988H407.248V54.7368ZM430.132 26.9989H440.413L448.279 75.2988H440.689L439.309 65.7078V65.8458H430.684L429.304 75.2988H422.266L430.132 26.9989ZM438.412 59.2908L435.031 35.4169H434.893L431.581 59.2908H438.412ZM451.961 26.9989H459.551V47.3538L469.211 26.9989H476.801L467.762 44.7319L476.939 75.2988H469.004L462.587 53.7708L459.551 59.9118V75.2988H451.961V26.9989ZM179.292 158.989C175.612 158.989 172.829 157.954 170.943 155.884C169.057 153.768 168.114 150.755 168.114 146.845V144.085H175.29V147.397C175.29 150.525 176.601 152.089 179.223 152.089C180.511 152.089 181.477 151.721 182.121 150.985C182.811 150.203 183.156 148.961 183.156 147.259C183.156 145.235 182.696 143.464 181.776 141.946C180.856 140.382 179.154 138.519 176.67 136.357C173.542 133.597 171.357 131.113 170.115 128.905C168.873 126.651 168.252 124.121 168.252 121.315C168.252 117.497 169.218 114.553 171.15 112.483C173.082 110.367 175.888 109.309 179.568 109.309C183.202 109.309 185.939 110.367 187.779 112.483C189.665 114.553 190.608 117.543 190.608 121.453V123.454H183.432V120.97C183.432 119.314 183.11 118.118 182.466 117.382C181.822 116.6 180.879 116.209 179.637 116.209C177.107 116.209 175.842 117.75 175.842 120.832C175.842 122.58 176.302 124.213 177.222 125.731C178.188 127.249 179.913 129.089 182.397 131.251C185.571 134.011 187.756 136.518 188.952 138.772C190.148 141.026 190.746 143.671 190.746 146.707C190.746 150.663 189.757 153.699 187.779 155.815C185.847 157.931 183.018 158.989 179.292 158.989ZM195.098 109.999H206.276C210.048 109.999 212.877 111.011 214.763 113.035C216.649 115.059 217.592 118.026 217.592 121.936V126.697C217.592 130.607 216.649 133.574 214.763 135.598C212.877 137.622 210.048 138.634 206.276 138.634H202.688V158.299H195.098V109.999ZM206.276 131.734C207.518 131.734 208.438 131.389 209.036 130.699C209.68 130.009 210.002 128.836 210.002 127.18V121.453C210.002 119.797 209.68 118.624 209.036 117.934C208.438 117.244 207.518 116.899 206.276 116.899H202.688V131.734H206.276ZM232.685 158.989C228.959 158.989 226.107 157.931 224.129 155.815C222.151 153.699 221.162 150.709 221.162 146.845V121.453C221.162 117.589 222.151 114.599 224.129 112.483C226.107 110.367 228.959 109.309 232.685 109.309C236.411 109.309 239.263 110.367 241.241 112.483C243.219 114.599 244.208 117.589 244.208 121.453V146.845C244.208 150.709 243.219 153.699 241.241 155.815C239.263 157.931 236.411 158.989 232.685 158.989ZM232.685 152.089C235.307 152.089 236.618 150.502 236.618 147.328V120.97C236.618 117.796 235.307 116.209 232.685 116.209C230.063 116.209 228.752 117.796 228.752 120.97V147.328C228.752 150.502 230.063 152.089 232.685 152.089ZM249.341 109.999H260.588C264.498 109.999 267.35 110.919 269.144 112.759C270.938 114.553 271.835 117.336 271.835 121.108V124.075C271.835 129.089 270.179 132.263 266.867 133.597V133.735C268.707 134.287 269.995 135.414 270.731 137.116C271.513 138.818 271.904 141.095 271.904 143.947V152.434C271.904 153.814 271.95 154.941 272.042 155.815C272.134 156.643 272.364 157.471 272.732 158.299H265.004C264.728 157.517 264.544 156.781 264.452 156.091C264.36 155.401 264.314 154.159 264.314 152.365V143.533C264.314 141.325 263.946 139.784 263.21 138.91C262.52 138.036 261.301 137.599 259.553 137.599H256.931V158.299H249.341V109.999ZM259.691 130.699C261.209 130.699 262.336 130.308 263.072 129.526C263.854 128.744 264.245 127.433 264.245 125.593V121.867C264.245 120.119 263.923 118.854 263.279 118.072C262.681 117.29 261.715 116.899 260.381 116.899H256.931V130.699H259.691ZM282.97 116.899H275.035V109.999H298.495V116.899H290.56V158.299H282.97V116.899ZM312.036 158.989C308.356 158.989 305.573 157.954 303.687 155.884C301.801 153.768 300.858 150.755 300.858 146.845V144.085H308.034V147.397C308.034 150.525 309.345 152.089 311.967 152.089C313.255 152.089 314.221 151.721 314.865 150.985C315.555 150.203 315.9 148.961 315.9 147.259C315.9 145.235 315.44 143.464 314.52 141.946C313.6 140.382 311.898 138.519 309.414 136.357C306.286 133.597 304.101 131.113 302.859 128.905C301.617 126.651 300.996 124.121 300.996 121.315C300.996 117.497 301.962 114.553 303.894 112.483C305.826 110.367 308.632 109.309 312.312 109.309C315.946 109.309 318.683 110.367 320.523 112.483C322.409 114.553 323.352 117.543 323.352 121.453V123.454H316.176V120.97C316.176 119.314 315.854 118.118 315.21 117.382C314.566 116.6 313.623 116.209 312.381 116.209C309.851 116.209 308.586 117.75 308.586 120.832C308.586 122.58 309.046 124.213 309.966 125.731C310.932 127.249 312.657 129.089 315.141 131.251C318.315 134.011 320.5 136.518 321.696 138.772C322.892 141.026 323.49 143.671 323.49 146.707C323.49 150.663 322.501 153.699 320.523 155.815C318.591 157.931 315.762 158.989 312.036 158.989Z" fill="white"/>
</svg>
