<svg width="546" height="235" viewBox="0 0 546 235" fill="none" xmlns="http://www.w3.org/2000/svg">
<rect x="42.0935" y="35.0933" width="148.288" height="148.288" rx="74.1441" fill="#FEC724"/>
<rect x="35.0288" y="28.0288" width="162.417" height="162.417" rx="81.2087" stroke="#FEC724" stroke-width="2.05765"/>
<path d="M133.552 72.0713C147.007 69.7742 158.639 73.8221 168.156 83.7402C169.36 85.0165 170.454 86.4028 171.657 87.6426C172.568 88.5904 172.386 89.2471 171.439 90.0127C168.193 92.6381 164.984 95.2997 161.812 97.998C160.625 98.9969 157.806 100.726 156.236 102.188C154.936 100.243 152.394 98.4116 151.793 102.035C150.298 110.969 144.938 117.278 136.223 119.685C127.107 122.201 132.384 135.191 127.134 126.404C126.222 124.873 125.603 123.158 124.837 121.518C124.618 121.153 124.327 120.862 124.217 120.716C123.014 124.034 122.065 127.498 120.533 130.67C117.543 136.796 112.767 141.135 106.495 143.979C101.573 146.204 96.5039 147.225 91.1437 146.86C80.022 146.095 68.5351 139.312 64.0499 127.936C62.7372 124.581 62.0084 121.007 61.0968 117.543C60.6957 116.048 61.3521 115.391 63.0294 115.428C67.9519 115.537 72.8745 115.501 77.797 115.428C79.0003 115.428 79.4379 115.793 79.7296 116.96C80.0578 118.491 80.6052 119.987 81.298 121.372C84.5434 127.68 94.8997 127.644 97.8898 122.575C99.1659 120.424 99.7491 118.163 99.8585 115.684C100.077 111.49 100.004 107.297 100.624 103.14C101.317 98.3264 103.323 93.9143 105.984 89.7939C112.512 79.7297 121.993 74.0404 133.552 72.0713ZM109.065 105.736C106.849 105.736 105.054 107.533 105.054 109.748C105.054 111.963 106.849 113.759 109.065 113.759C111.28 113.759 113.076 111.963 113.076 109.748C113.076 107.533 111.28 105.736 109.065 105.736ZM156.236 102.188C157.147 103.551 157.45 104.97 156.046 104.611C154.583 104.237 155.056 103.288 156.236 102.188Z" fill="black"/>
<circle cx="145.045" cy="115.584" r="21.4682" fill="#F5683A"/>
<circle cx="69.8718" cy="103.993" r="9.67097" fill="#F5683A"/>
<path d="M213.292 102.989C209.612 102.989 206.829 101.954 204.943 99.8838C203.057 97.7678 202.114 94.7548 202.114 90.8448V88.0848H209.29V91.3968C209.29 94.5248 210.601 96.0888 213.223 96.0888C214.511 96.0888 215.477 95.7208 216.121 94.9848C216.811 94.2028 217.156 92.9608 217.156 91.2588C217.156 89.2348 216.696 87.4638 215.776 85.9458C214.856 84.3818 213.154 82.5188 210.67 80.3568C207.542 77.5968 205.357 75.1128 204.115 72.9048C202.873 70.6509 202.252 68.1209 202.252 65.3149C202.252 61.4969 203.218 58.5529 205.15 56.4829C207.082 54.3669 209.888 53.3089 213.568 53.3089C217.202 53.3089 219.939 54.3669 221.779 56.4829C223.665 58.5529 224.608 61.5429 224.608 65.4529V67.4539H217.432V64.9699C217.432 63.3139 217.11 62.1179 216.466 61.3819C215.822 60.5999 214.879 60.2089 213.637 60.2089C211.107 60.2089 209.842 61.7499 209.842 64.8319C209.842 66.5799 210.302 68.2129 211.222 69.7309C212.188 71.2489 213.913 73.0888 216.397 75.2508C219.571 78.0108 221.756 80.5178 222.952 82.7718C224.148 85.0258 224.746 87.6708 224.746 90.7068C224.746 94.6628 223.757 97.6988 221.779 99.8148C219.847 101.931 217.018 102.989 213.292 102.989ZM229.098 53.9989H236.688V102.299H229.098V53.9989ZM242.373 53.9989H253.965C257.737 53.9989 260.566 55.0109 262.452 57.0349C264.338 59.0589 265.281 62.0259 265.281 65.9359V90.3618C265.281 94.2718 264.338 97.2388 262.452 99.2628C260.566 101.287 257.737 102.299 253.965 102.299H242.373V53.9989ZM253.827 95.3988C255.069 95.3988 256.012 95.0308 256.656 94.2948C257.346 93.5588 257.691 92.3628 257.691 90.7068V65.5909C257.691 63.9349 257.346 62.7389 256.656 62.0029C256.012 61.2669 255.069 60.8989 253.827 60.8989H249.963V95.3988H253.827ZM270.404 53.9989H281.996C285.768 53.9989 288.597 55.0109 290.483 57.0349C292.369 59.0589 293.312 62.0259 293.312 65.9359V90.3618C293.312 94.2718 292.369 97.2388 290.483 99.2628C288.597 101.287 285.768 102.299 281.996 102.299H270.404V53.9989ZM281.858 95.3988C283.1 95.3988 284.043 95.0308 284.687 94.2948C285.377 93.5588 285.722 92.3628 285.722 90.7068V65.5909C285.722 63.9349 285.377 62.7389 284.687 62.0029C284.043 61.2669 283.1 60.8989 281.858 60.8989H277.994V95.3988H281.858ZM298.435 53.9989H306.025V73.6638H314.167V53.9989H321.757V102.299H314.167V80.5638H306.025V102.299H298.435V53.9989ZM327.41 53.9989H335V102.299H327.41V53.9989ZM338.683 53.9989H346.342L351.31 91.4658H351.448L356.416 53.9989H363.385L356.071 102.299H345.997L338.683 53.9989ZM367.031 53.9989H374.621V102.299H367.031V53.9989ZM380.305 53.9989H389.827L397.21 82.9098H397.348V53.9989H404.11V102.299H396.313L387.205 67.0399H387.067V102.299H380.305V53.9989ZM415.616 53.9989H425.897L433.763 102.299H426.173L424.793 92.7078V92.8458H416.168L414.788 102.299H407.75L415.616 53.9989ZM423.896 86.2908L420.515 62.4169H420.377L417.065 86.2908H423.896ZM441.248 81.7368L432.071 53.9989H440.144L445.319 71.7319H445.457L450.632 53.9989H458.015L448.838 81.7368V102.299H441.248V81.7368ZM464.132 53.9989H474.413L482.279 102.299H474.689L473.309 92.7078V92.8458H464.684L463.304 102.299H456.266L464.132 53.9989ZM472.412 86.2908L469.031 62.4169H468.893L465.581 86.2908H472.412ZM485.961 53.9989H493.551V74.3538L503.211 53.9989H510.801L501.762 71.7319L510.939 102.299H503.004L496.587 80.7708L493.551 86.9118V102.299H485.961V53.9989ZM213.292 185.989C209.612 185.989 206.829 184.954 204.943 182.884C203.057 180.768 202.114 177.755 202.114 173.845V171.085H209.29V174.397C209.29 177.525 210.601 179.089 213.223 179.089C214.511 179.089 215.477 178.721 216.121 177.985C216.811 177.203 217.156 175.961 217.156 174.259C217.156 172.235 216.696 170.464 215.776 168.946C214.856 167.382 213.154 165.519 210.67 163.357C207.542 160.597 205.357 158.113 204.115 155.905C202.873 153.651 202.252 151.121 202.252 148.315C202.252 144.497 203.218 141.553 205.15 139.483C207.082 137.367 209.888 136.309 213.568 136.309C217.202 136.309 219.939 137.367 221.779 139.483C223.665 141.553 224.608 144.543 224.608 148.453V150.454H217.432V147.97C217.432 146.314 217.11 145.118 216.466 144.382C215.822 143.6 214.879 143.209 213.637 143.209C211.107 143.209 209.842 144.75 209.842 147.832C209.842 149.58 210.302 151.213 211.222 152.731C212.188 154.249 213.913 156.089 216.397 158.251C219.571 161.011 221.756 163.518 222.952 165.772C224.148 168.026 224.746 170.671 224.746 173.707C224.746 177.663 223.757 180.699 221.779 182.815C219.847 184.931 217.018 185.989 213.292 185.989ZM229.098 136.999H240.276C244.048 136.999 246.877 138.011 248.763 140.035C250.649 142.059 251.592 145.026 251.592 148.936V153.697C251.592 157.607 250.649 160.574 248.763 162.598C246.877 164.622 244.048 165.634 240.276 165.634H236.688V185.299H229.098V136.999ZM240.276 158.734C241.518 158.734 242.438 158.389 243.036 157.699C243.68 157.009 244.002 155.836 244.002 154.18V148.453C244.002 146.797 243.68 145.624 243.036 144.934C242.438 144.244 241.518 143.899 240.276 143.899H236.688V158.734H240.276ZM266.685 185.989C262.959 185.989 260.107 184.931 258.129 182.815C256.151 180.699 255.162 177.709 255.162 173.845V148.453C255.162 144.589 256.151 141.599 258.129 139.483C260.107 137.367 262.959 136.309 266.685 136.309C270.411 136.309 273.263 137.367 275.241 139.483C277.219 141.599 278.208 144.589 278.208 148.453V173.845C278.208 177.709 277.219 180.699 275.241 182.815C273.263 184.931 270.411 185.989 266.685 185.989ZM266.685 179.089C269.307 179.089 270.618 177.502 270.618 174.328V147.97C270.618 144.796 269.307 143.209 266.685 143.209C264.063 143.209 262.752 144.796 262.752 147.97V174.328C262.752 177.502 264.063 179.089 266.685 179.089ZM283.341 136.999H294.588C298.498 136.999 301.35 137.919 303.144 139.759C304.938 141.553 305.835 144.336 305.835 148.108V151.075C305.835 156.089 304.179 159.263 300.867 160.597V160.735C302.707 161.287 303.995 162.414 304.731 164.116C305.513 165.818 305.904 168.095 305.904 170.947V179.434C305.904 180.814 305.95 181.941 306.042 182.815C306.134 183.643 306.364 184.471 306.732 185.299H299.004C298.728 184.517 298.544 183.781 298.452 183.091C298.36 182.401 298.314 181.159 298.314 179.365V170.533C298.314 168.325 297.946 166.784 297.21 165.91C296.52 165.036 295.301 164.599 293.553 164.599H290.931V185.299H283.341V136.999ZM293.691 157.699C295.209 157.699 296.336 157.308 297.072 156.526C297.854 155.744 298.245 154.433 298.245 152.593V148.867C298.245 147.119 297.923 145.854 297.279 145.072C296.681 144.29 295.715 143.899 294.381 143.899H290.931V157.699H293.691ZM316.97 143.899H309.035V136.999H332.495V143.899H324.56V185.299H316.97V143.899ZM346.036 185.989C342.356 185.989 339.573 184.954 337.687 182.884C335.801 180.768 334.858 177.755 334.858 173.845V171.085H342.034V174.397C342.034 177.525 343.345 179.089 345.967 179.089C347.255 179.089 348.221 178.721 348.865 177.985C349.555 177.203 349.9 175.961 349.9 174.259C349.9 172.235 349.44 170.464 348.52 168.946C347.6 167.382 345.898 165.519 343.414 163.357C340.286 160.597 338.101 158.113 336.859 155.905C335.617 153.651 334.996 151.121 334.996 148.315C334.996 144.497 335.962 141.553 337.894 139.483C339.826 137.367 342.632 136.309 346.312 136.309C349.946 136.309 352.683 137.367 354.523 139.483C356.409 141.553 357.352 144.543 357.352 148.453V150.454H350.176V147.97C350.176 146.314 349.854 145.118 349.21 144.382C348.566 143.6 347.623 143.209 346.381 143.209C343.851 143.209 342.586 144.75 342.586 147.832C342.586 149.58 343.046 151.213 343.966 152.731C344.932 154.249 346.657 156.089 349.141 158.251C352.315 161.011 354.5 163.518 355.696 165.772C356.892 168.026 357.49 170.671 357.49 173.707C357.49 177.663 356.501 180.699 354.523 182.815C352.591 184.931 349.762 185.989 346.036 185.989Z" fill="#1E1E1E"/>
</svg>
