<svg width="186" height="30" viewBox="0 0 182 28" fill="none" xmlns="http://www.w3.org/2000/svg">
  <g clip-path="url(#clip0_3901_104757)">
    <path opacity="0.7"
      d="M37.3956 28.2473C38.9379 28.2496 40.4185 27.6417 41.5142 26.5562C42.61 25.4708 43.2318 23.9959 43.244 22.4536C43.2314 20.9116 42.6094 19.4372 41.5137 18.352C40.418 17.2669 38.9376 16.6592 37.3956 16.6615C36.2389 16.6601 35.1085 17.0066 34.1514 17.6561L33.0426 15.9976L30.1173 20.3691L31.6202 22.6153C31.6597 24.1214 32.2854 25.5525 33.364 26.6043C34.4426 27.6561 35.889 28.2456 37.3956 28.2473ZM37.3956 19.9717C37.8867 19.9715 38.3668 20.117 38.7753 20.3898C39.1837 20.6625 39.5021 21.0503 39.6901 21.504C39.8782 21.9577 39.9274 22.457 39.8316 22.9387C39.7359 23.4204 39.4994 23.8629 39.1521 24.2102C38.8048 24.5575 38.3623 24.7939 37.8806 24.8897C37.3989 24.9855 36.8996 24.9362 36.4459 24.7482C35.9922 24.5602 35.6044 24.2418 35.3317 23.8334C35.0589 23.4249 34.9135 22.9448 34.9136 22.4536C34.914 21.7955 35.1756 21.1644 35.6409 20.699C36.1063 20.2336 36.7374 19.972 37.3956 19.9717Z"
      fill="#003DE4" />
    <path opacity="0.8"
      d="M21.3645 0.256227C20.5829 1.11017 20.1131 2.20331 20.0314 3.35802C19.9497 4.51272 20.2609 5.66113 20.9144 6.61662L25.2 13.0209L28.1256 8.64844L22.6596 0.36738C22.5897 0.264283 22.4977 0.17809 22.3902 0.115089C22.2828 0.0520883 22.1626 0.0138683 22.0385 0.00321763C21.9144 -0.00743309 21.7895 0.00975412 21.6729 0.0535254C21.5563 0.0972967 21.4509 0.166548 21.3645 0.256227Z"
      fill="url(#paint0_linear_3901_104757)" />
    <path opacity="0.8"
      d="M35.5164 0.256236C34.735 1.11028 34.2654 2.2034 34.1836 3.35805C34.1019 4.5127 34.413 5.66106 35.0663 6.61663L51.9262 28.0859H58L36.8118 0.367389C36.7419 0.264286 36.6498 0.17809 36.5424 0.115089C36.4349 0.052087 36.3147 0.0138675 36.1906 0.00321731C36.0664 -0.00743286 35.9415 0.00975488 35.8249 0.0535271C35.7082 0.0972993 35.6028 0.166552 35.5164 0.256236Z"
      fill="#003DE4" />
    <path opacity="0.8"
      d="M22.7258 0.256214C23.5071 1.1103 23.9767 2.20351 24.0582 3.35822C24.1397 4.51292 23.8283 5.66125 23.1747 6.61661L6.03881 28.0862H0L21.43 0.367367C21.5 0.264258 21.5921 0.17806 21.6996 0.115058C21.8071 0.0520552 21.9273 0.0138361 22.0514 0.00318647C22.1756 -0.00746314 22.3005 0.00972512 22.4172 0.0534982C22.5339 0.0972713 22.6393 0.166526 22.7258 0.256214Z"
      fill="#003DE4" />
    <path opacity="0.8"
      d="M36.8779 0.256201C36.7915 0.166506 36.6861 0.0972337 36.5695 0.0534379C36.4529 0.00964201 36.328 -0.0075731 36.2039 0.00304836C36.0798 0.0136698 35.9596 0.0518599 35.8522 0.114833C35.7447 0.177806 35.6527 0.263973 35.5827 0.367049L24.0904 17.6558C23.1328 17.0059 22.0017 16.6593 20.8444 16.6612C19.705 16.6586 18.5901 16.9922 17.6392 17.62C16.6884 18.2479 15.9438 19.1423 15.4987 20.1912C15.0536 21.2401 14.9277 22.397 15.1367 23.5171C15.3458 24.6372 15.8805 25.6708 16.674 26.4885C17.4676 27.3062 18.4846 27.8718 19.5979 28.1144C20.7112 28.3571 21.8714 28.266 22.9332 27.8526C23.995 27.4392 24.9113 26.7218 25.5675 25.7903C26.2237 24.8587 26.5906 23.7543 26.6223 22.6153L37.328 6.61659C37.9814 5.66106 38.2925 4.51268 38.2108 3.358C38.1291 2.20332 37.6593 1.1102 36.8779 0.256201ZM20.8444 24.9371C20.512 24.9475 20.1808 24.891 19.8706 24.771C19.5603 24.6509 19.2774 24.4698 19.0385 24.2383C18.7997 24.0068 18.6098 23.7296 18.4801 23.4233C18.3504 23.117 18.2835 22.7878 18.2835 22.4552C18.2835 22.1225 18.3504 21.7933 18.4801 21.487C18.6098 21.1807 18.7997 20.9035 19.0385 20.672C19.2774 20.4405 19.5603 20.2594 19.8706 20.1393C20.1808 20.0193 20.512 19.9628 20.8444 19.9732C21.4932 19.9876 22.1105 20.2554 22.5642 20.7193C23.0179 21.1832 23.272 21.8063 23.272 22.4552C23.272 23.104 23.0179 23.7271 22.5642 24.191C22.1105 24.6549 21.4932 24.9227 20.8444 24.9371Z"
      fill="url(#paint1_linear_3901_104757)" />
    <path
      d="M67.384 13H69.9931V4.55651L73.4969 13H75.4724L78.9575 4.55651V13H81.5667V0.0185989H78.622L74.4846 9.67096L70.3472 0.0185989H67.384V13Z"
      fill="black" />
    <path
      d="M89.5323 8.48069V13H92.1415V8.48069L96.5398 0.0185989H93.6325L90.8556 5.95136L88.06 0.0185989H85.1154L89.5323 8.48069Z"
      fill="black" />
    <path d="M99.4051 2.12017H102.872V13H105.481V2.12017H108.947V0.0185989H99.4051V2.12017Z"
      fill="black" />
    <path
      d="M121.735 13H124.493L119.815 0H116.777L112.1 13H114.839L115.697 10.5265H120.878L121.735 13ZM120.169 8.44349H116.405L118.287 3.01288L120.169 8.44349Z"
      fill="black" />
    <path
      d="M136.082 13H139.083L134.926 6.5465L139.008 0.0185989H136.063L133.529 4.37053L130.715 0.0185989H127.714L131.87 6.45351L127.77 13H130.715L133.268 8.62947L136.082 13Z"
      fill="black" />
    <path
      d="M151.952 13H154.71L150.033 0H146.995L142.317 13H145.057L145.914 10.5265H151.095L151.952 13ZM150.387 8.44349H146.622L148.504 3.01288L150.387 8.44349Z"
      fill="black" />
    <path
      d="M161.118 5.91416V2.13877H163.187C164.659 2.13877 165.312 2.84549 165.312 4.03577C165.312 5.18884 164.659 5.91416 163.187 5.91416H161.118ZM167.995 4.03577C167.995 1.78541 166.43 0.0185989 163.299 0.0185989H158.509V13H161.118V8.01574H163.299C166.653 8.01574 167.995 6.00715 167.995 4.03577Z"
      fill="black" />
    <path
      d="M174.507 5.91416V2.13877H176.576C178.048 2.13877 178.7 2.84549 178.7 4.03577C178.7 5.18884 178.048 5.91416 176.576 5.91416H174.507ZM181.384 4.03577C181.384 1.78541 179.818 0.0185989 176.687 0.0185989H171.898V13H174.507V8.01574H176.687C180.042 8.01574 181.384 6.00715 181.384 4.03577Z"
      fill="black" />
    <path
      d="M70.13 25.064C70.13 25.876 69.724 26.464 68.87 26.464C68.016 26.464 67.624 25.876 67.61 25.064H66C66 26.828 67.19 27.878 68.87 27.878C70.55 27.878 71.74 26.828 71.74 25.064V18.05H70.13V25.064Z"
      fill="black" />
    <path
      d="M85.5223 20.066H83.9263V24.364C83.9263 25.778 83.1563 26.506 81.9803 26.506C80.8183 26.506 80.0483 25.778 80.0483 24.364V20.066H78.4663V24.602C78.4663 26.758 79.8383 27.892 81.6443 27.892C82.5543 27.892 83.4223 27.514 83.9263 26.856V27.78H85.5223V20.066Z"
      fill="black" />
    <path
      d="M97.5821 25.624C97.4981 22.838 93.1441 23.706 93.1441 22.152C93.1441 21.634 93.5921 21.284 94.4461 21.284C95.3141 21.284 95.8321 21.746 95.8881 22.418H97.4841C97.4001 20.878 96.2521 19.94 94.5021 19.94C92.6821 19.94 91.5341 20.934 91.5341 22.166C91.5341 24.994 96.0141 24.126 96.0141 25.638C96.0141 26.17 95.5241 26.562 94.6001 26.562C93.7181 26.562 93.1161 26.044 93.0601 25.414H91.4081C91.4781 26.814 92.7801 27.906 94.6281 27.906C96.4481 27.906 97.5821 26.926 97.5821 25.624Z"
      fill="black" />
    <path
      d="M103.759 25.638C103.759 27.206 104.613 27.78 105.985 27.78H107.245V26.45H106.265C105.593 26.45 105.369 26.212 105.369 25.638V21.368H107.245V20.066H105.369V18.148H103.759V20.066H102.849V21.368H103.759V25.638Z"
      fill="black" />
    <path
      d="M120.752 27.78H122.348V23.524H125.568V22.222H122.348V19.352H126.478V18.05H120.752V27.78Z"
      fill="black" />
    <path
      d="M132.157 27.78H133.753V20.066H132.157V27.78ZM132.969 19.044C133.529 19.044 133.977 18.596 133.977 18.022C133.977 17.448 133.529 17 132.969 17C132.395 17 131.947 17.448 131.947 18.022C131.947 18.596 132.395 19.044 132.969 19.044Z"
      fill="black" />
    <path d="M140.049 27.78H141.645V17.42H140.049V27.78Z" fill="black" />
    <path
      d="M151.188 21.284C152.378 21.284 153.316 22.04 153.344 23.23H149.074C149.242 22.012 150.11 21.284 151.188 21.284ZM154.8 25.484H153.078C152.784 26.086 152.238 26.562 151.258 26.562C150.082 26.562 149.172 25.792 149.06 24.518H154.954C154.996 24.252 155.01 24 155.01 23.734C155.01 21.466 153.456 19.94 151.258 19.94C148.976 19.94 147.408 21.494 147.408 23.916C147.408 26.338 149.046 27.906 151.258 27.906C153.148 27.906 154.366 26.828 154.8 25.484Z"
      fill="black" />
    <path
      d="M176.761 25.638C176.761 27.206 177.615 27.78 178.987 27.78H180.247V26.45H179.267C178.595 26.45 178.371 26.212 178.371 25.638V21.368H180.247V20.066H178.371V18.148H176.761V20.066H175.851V21.368H176.761V25.638Z"
      fill="black" />
    <path d="M170 28.455H171.365V18H170V28.455Z" fill="black" />
  </g>
  <defs>
    <linearGradient id="paint0_linear_3901_104757" x1="23.6627" y1="-0.160913" x2="23.6627"
      y2="13.0209" gradientUnits="userSpaceOnUse">
      <stop stop-color="#003DE4" />
      <stop offset="1" stop-color="#003DE4" stop-opacity="0.988" />
    </linearGradient>
    <linearGradient id="paint1_linear_3901_104757" x1="26.807" y1="-0.0102494" x2="26.807"
      y2="28.2473" gradientUnits="userSpaceOnUse">
      <stop stop-color="#003DE4" />
      <stop offset="1" stop-color="#003DE4" stop-opacity="0.749" />
    </linearGradient>
    <clipPath id="clip0_3901_104757">
      <rect width="186" height="30" fill="white" />
    </clipPath>
  </defs>
</svg>