<svg width="24" height="24" viewBox="0 0 24 24" fill="none" xmlns="http://www.w3.org/2000/svg">
<mask id="mask0_372_5545" style="mask-type:alpha" maskUnits="userSpaceOnUse" x="0" y="0" width="24" height="24">
<rect width="24" height="24" fill="#D9D9D9"/>
</mask>
<g mask="url(#mask0_372_5545)">
<path d="M4 20C3.45 20 2.97917 19.8042 2.5875 19.4125C2.19583 19.0208 2 18.55 2 18V14C2 13.7167 2.09583 13.4792 2.2875 13.2875C2.47917 13.0958 2.71667 13 3 13H7.375L9.1 16.45C9.18333 16.6333 9.30833 16.7708 9.475 16.8625C9.64167 16.9542 9.81667 17 10 17C10.1833 17 10.3583 16.9542 10.525 16.8625C10.6917 16.7708 10.8167 16.6333 10.9 16.45L14 10.25L15.1 12.45C15.1833 12.6333 15.3083 12.7708 15.475 12.8625C15.6417 12.9542 15.8167 13 16 13H21C21.2833 13 21.5208 13.0958 21.7125 13.2875C21.9042 13.4792 22 13.7167 22 14V18C22 18.55 21.8042 19.0208 21.4125 19.4125C21.0208 19.8042 20.55 20 20 20H4ZM2 6C2 5.45 2.19583 4.97917 2.5875 4.5875C2.97917 4.19583 3.45 4 4 4H20C20.55 4 21.0208 4.19583 21.4125 4.5875C21.8042 4.97917 22 5.45 22 6V10C22 10.2833 21.9042 10.5208 21.7125 10.7125C21.5208 10.9042 21.2833 11 21 11H16.625L14.9 7.55C14.8167 7.36667 14.6917 7.2375 14.525 7.1625C14.3583 7.0875 14.1833 7.05 14 7.05C13.8167 7.05 13.6417 7.0875 13.475 7.1625C13.3083 7.2375 13.1833 7.36667 13.1 7.55L10 13.75L8.9 11.55C8.81667 11.3667 8.69167 11.2292 8.525 11.1375C8.35833 11.0458 8.18333 11 8 11H3C2.71667 11 2.47917 10.9042 2.2875 10.7125C2.09583 10.5208 2 10.2833 2 10V6Z" fill="white"/>
</g>
</svg>
