<svg width="24" height="24" viewBox="0 0 24 24" fill="none" xmlns="http://www.w3.org/2000/svg">
<mask id="mask0_372_5551" style="mask-type:alpha" maskUnits="userSpaceOnUse" x="0" y="0" width="24" height="24">
<rect width="24" height="24" fill="#D9D9D9"/>
</mask>
<g mask="url(#mask0_372_5551)">
<path d="M12.125 13H16.2C16.6333 13 17 12.85 17.3 12.55C17.6 12.25 17.75 11.8833 17.75 11.45C17.75 11.0167 17.6 10.6458 17.3 10.3375C17 10.0292 16.6333 9.875 16.2 9.875H16.15C16.0667 9.34167 15.825 8.89583 15.425 8.5375C15.025 8.17917 14.55 8 14 8C13.5667 8 13.175 8.1125 12.825 8.3375C12.475 8.5625 12.2083 8.86667 12.025 9.25C11.525 9.28333 11.1042 9.47917 10.7625 9.8375C10.4208 10.1958 10.25 10.625 10.25 11.125C10.25 11.625 10.4292 12.0625 10.7875 12.4375C11.1458 12.8125 11.5917 13 12.125 13ZM3 21C2.45 21 1.97917 20.8042 1.5875 20.4125C1.19583 20.0208 1 19.55 1 19V7C1 6.71667 1.09583 6.47917 1.2875 6.2875C1.47917 6.09583 1.71667 6 2 6C2.28333 6 2.52083 6.09583 2.7125 6.2875C2.90417 6.47917 3 6.71667 3 7V19H19C19.2833 19 19.5208 19.0958 19.7125 19.2875C19.9042 19.4792 20 19.7167 20 20C20 20.2833 19.9042 20.5208 19.7125 20.7125C19.5208 20.9042 19.2833 21 19 21H3ZM7 17C6.45 17 5.97917 16.8042 5.5875 16.4125C5.19583 16.0208 5 15.55 5 15V4C5 3.45 5.19583 2.97917 5.5875 2.5875C5.97917 2.19583 6.45 2 7 2H11.175C11.4417 2 11.6958 2.05 11.9375 2.15C12.1792 2.25 12.3917 2.39167 12.575 2.575L14 4H21C21.55 4 22.0208 4.19583 22.4125 4.5875C22.8042 4.97917 23 5.45 23 6V15C23 15.55 22.8042 16.0208 22.4125 16.4125C22.0208 16.8042 21.55 17 21 17H7Z" fill="white"/>
</g>
</svg>
