<svg width="40" height="40" viewBox="0 0 40 40" fill="none" xmlns="http://www.w3.org/2000/svg">
<path d="M25.2802 13.4315C22.4935 14.9383 20.2268 17.0982 18.6669 19.8049C18.5069 20.0715 18.3602 20.3381 18.2268 20.6183C18.0135 19.7648 17.8002 18.8983 17.5202 18.0715C16.5643 15.3299 14.7204 11.664 11.8268 11.3114C14.5983 11.9736 15.9465 15.5679 16.6136 18.3381C16.9469 19.7381 17.0668 21.1782 17.3602 22.6851C16.4668 25.2983 16.2268 28.1515 16.6669 31.0848C16.7602 31.7515 16.9069 32.4315 17.0935 33.1115C12.7868 31.4982 9.28021 28.7782 6.96014 25.1782C3.29347 19.5249 2.76019 12.3915 5.5202 5.01841C5.81349 4.24497 6.57351 3.72479 7.41351 3.77817C15.2402 4.31138 21.5735 7.71177 25.2002 13.325C25.2002 13.325 25.2002 13.325 25.2269 13.3381C25.2402 13.3648 25.2669 13.4048 25.2802 13.4315Z" fill="#0072FF"/>
<path d="M34.3646 28.8723V28.8856C32.0712 32.8056 27.9912 35.3791 22.8179 36.1656L22.4712 36.219C22.4712 36.0054 22.4846 35.8189 22.4846 35.619C22.5779 33.6454 23.2846 31.7255 24.4446 30.0321C26.3659 27.4846 27.4219 27.0392 28.8845 25.5256C30.3106 24.0493 32.0077 21.687 31.3379 19.7522C31.8068 21.7266 29.9451 23.7221 28.4179 25.0458C26.8698 26.3611 25.5118 26.8757 23.3912 29.219C21.9912 30.8589 20.9379 32.899 20.5512 35.1122C19.9513 33.6324 19.5246 32.1522 19.3112 30.6988C18.7912 27.2323 19.3646 23.9257 20.9779 21.1389C23.3779 16.9924 27.7246 14.3654 33.2846 13.7255C33.8712 13.6591 34.4446 13.9787 34.6713 14.5256C36.858 19.6591 36.7513 24.7522 34.3646 28.8723Z" fill="white"/>
</svg>
