<svg width="40" height="40" viewBox="0 0 40 40" fill="none" xmlns="http://www.w3.org/2000/svg">
<g clip-path="url(#clip0_299_643)">
<path d="M6.91099 11.1525L16.911 14.8965L25.407 6.40046H10.399C10.2941 6.39907 10.19 6.41971 10.0935 6.46105C9.99707 6.50239 9.91036 6.56351 9.83899 6.64046L6.63899 9.84046C6.54483 9.93583 6.47526 10.0526 6.43624 10.1808C6.39722 10.309 6.38993 10.4448 6.41499 10.5765C6.44759 10.7042 6.50934 10.8227 6.59539 10.9227C6.68144 11.0226 6.78946 11.1013 6.91099 11.1525Z" fill="white"/>
<path d="M28.8631 33.0901C28.9144 33.2116 28.993 33.3197 29.0929 33.4057C29.1929 33.4918 29.3114 33.5535 29.4391 33.5861C29.4968 33.5994 29.556 33.6047 29.6151 33.6021C29.7201 33.6035 29.8241 33.5829 29.9206 33.5415C30.0171 33.5002 30.1038 33.4391 30.1752 33.3621L33.3752 30.1621C33.4521 30.0908 33.5132 30.004 33.5546 29.9076C33.5959 29.8111 33.6165 29.7071 33.6152 29.6021V14.5781L25.1191 23.0901L28.8631 33.0901Z" fill="white"/>
<path d="M39.202 4.77512e-05C37.5746 -0.00448587 35.9624 0.313849 34.4588 0.936622C32.9553 1.5594 31.5902 2.47424 30.4426 3.62818L13.2246 20.8462L2.28859 22.4079C2.16062 22.4264 2.03902 22.4756 1.93415 22.5512C1.82927 22.6268 1.74422 22.7267 1.68624 22.8423L0.0862363 26.0423C0.0296283 26.1557 0.000754806 26.2809 0.00199122 26.4076C0.00322764 26.5344 0.0345387 26.659 0.0933483 26.7713C0.152158 26.8836 0.236785 26.9803 0.340268 27.0535C0.443751 27.1266 0.563132 27.1742 0.688589 27.1923L11.2949 28.7071L12.8097 39.3134C12.8277 39.4388 12.8753 39.5582 12.9484 39.6617C13.0216 39.7652 13.1183 39.8499 13.2306 39.9087C13.3429 39.9675 13.4676 39.9988 13.5943 40C13.7211 40.0013 13.8463 39.9724 13.9597 39.9157L17.1597 38.3157C17.2753 38.2577 17.3751 38.1727 17.4508 38.0678C17.5264 37.9629 17.5756 37.8413 17.5941 37.7134L19.1558 26.7773L36.3762 9.54458C37.5276 8.39834 38.4408 7.03553 39.0631 5.53471C39.6854 4.0339 40.0045 2.42476 40.002 0.800048C40.002 0.694974 39.9814 0.590917 39.9412 0.493829C39.901 0.396741 39.8421 0.308526 39.7678 0.234226C39.6935 0.159927 39.6053 0.101002 39.5082 0.0608199C39.4111 0.0206378 39.3071 -1.32452e-05 39.202 4.77512e-05Z" fill="#0072FF"/>
</g>
<defs>
<clipPath id="clip0_299_643">
<rect width="40.0001" height="40" fill="white"/>
</clipPath>
</defs>
</svg>
