<svg width="40" height="40" viewBox="0 0 40 40" fill="none" xmlns="http://www.w3.org/2000/svg">
<path d="M34.0158 11.6004V14.6504C34.0158 15.7171 33.5158 16.7171 32.6491 17.3337L14.3158 30.7671C13.1324 31.6337 11.5158 31.6337 10.3491 30.7504L7.94909 28.9504C6.86576 28.1337 5.98242 26.3671 5.98242 25.0171V11.6004C5.98242 9.73372 7.41576 7.66706 9.16576 7.01706L18.2824 3.60039C19.2324 3.25039 20.7658 3.25039 21.7158 3.60039L30.8324 7.01706C32.5824 7.66706 34.0158 9.73372 34.0158 11.6004Z" fill="#0072FF"/>
<path d="M31.366 20.5667C32.466 19.7667 34.016 20.55 34.016 21.9167V25.05C34.016 26.4 33.1327 28.15 32.0494 28.9667L22.9327 35.7834C22.1327 36.3667 21.066 36.6667 19.9994 36.6667C18.9327 36.6667 17.866 36.3667 17.066 35.7667L15.6827 34.7334C14.7827 34.0667 14.7827 32.7167 15.6994 32.05L31.366 20.5667Z" fill="white"/>
</svg>
