<svg width="40" height="40" viewBox="0 0 40 40" fill="none" xmlns="http://www.w3.org/2000/svg">
<g clip-path="url(#clip0_299_581)">
<path d="M6.37907 8.63672C6.2653 8.63634 6.15552 8.67861 6.07138 8.75517C5.98724 8.83174 5.93484 8.93706 5.92452 9.05036L3.19724 39.0504C3.19225 39.1133 3.20026 39.1765 3.2208 39.2362C3.24134 39.2958 3.27395 39.3506 3.3166 39.3971C3.35925 39.4436 3.41103 39.4808 3.4687 39.5064C3.52637 39.532 3.5887 39.5454 3.65179 39.5458H24.9655L27.7745 8.63672H6.37907Z" fill="#0072FF"/>
<path d="M11.9933 6.69634C12.1192 5.23723 12.7894 3.87886 13.8706 2.89108C14.9519 1.90329 16.3652 1.35835 17.8297 1.36452C18.3032 1.36369 18.775 1.42171 19.2342 1.53724C18.3727 2.09528 17.65 2.84281 17.1214 3.72276C16.5928 4.6027 16.2722 5.59179 16.1842 6.61452L16.0842 7.72815H16.9933L17.0888 6.69634C17.1784 5.68781 17.5278 4.71972 18.1029 3.88645C18.6781 3.05319 19.4594 2.38319 20.3706 1.94179C21.4432 2.45709 22.3334 3.28674 22.9229 4.32038C23.5124 5.35403 23.7732 6.54266 23.6706 7.72815H24.5842C24.7159 5.94727 24.1387 4.18648 22.9783 2.82914C21.8179 1.47179 20.1683 0.62782 18.3886 0.48096C16.6089 0.334101 14.8432 0.89625 13.476 2.04502C12.1088 3.19378 11.2508 4.83614 11.0888 6.61452L10.9888 7.72815H11.8979L11.9933 6.69634Z" fill="white"/>
<path d="M22.9496 1.36319C23.7615 1.36321 24.5646 1.53199 25.3078 1.85883C26.051 2.18567 26.7182 2.66342 27.267 3.26178C27.8158 3.86015 28.2342 4.56604 28.4957 5.33469C28.7572 6.10334 28.856 6.91795 28.786 7.72683H29.6951C29.7649 6.79835 29.6422 5.86547 29.3349 4.98656C29.0275 4.10765 28.5421 3.30165 27.9089 2.61898C27.2757 1.93631 26.5084 1.39168 25.6551 1.01917C24.8018 0.646664 23.8807 0.454294 22.9496 0.454102C22.5211 0.454057 22.0936 0.49362 21.6724 0.572283C22.0755 0.799099 22.456 1.06394 22.8087 1.36319H22.9496Z" fill="white"/>
<path d="M34.0991 9.04938C34.0889 8.93635 34.0368 8.83123 33.953 8.75468C33.8692 8.67814 33.7598 8.63571 33.6463 8.63574H31.8281V35.2226L36.8077 38.844L34.0991 9.04938Z" fill="white"/>
<path d="M26.3594 39.5382C26.3665 39.5386 26.3728 39.5428 26.3799 39.5428H36.2324L31.3755 36.0107L26.3594 39.5382Z" fill="white"/>
<path d="M30.937 8.63574H28.7033L25.9692 38.7112L30.937 35.2176V8.63574Z" fill="white"/>
</g>
<defs>
<clipPath id="clip0_299_581">
<rect width="40.0001" height="40" fill="white"/>
</clipPath>
</defs>
</svg>
