<svg width="40" height="40" viewBox="0 0 40 40" fill="none" xmlns="http://www.w3.org/2000/svg">
<g clip-path="url(#clip0_299_616)">
<path d="M6.12524 4.72363C6.12416 4.72363 6.12295 4.72363 6.12187 4.72363C5.74355 4.72363 5.38772 4.87111 5.11904 5.13912C4.84738 5.4101 4.69775 5.77091 4.69775 6.15502V27.6184C4.69775 28.4055 5.34059 29.0474 6.13089 29.0494C9.46263 29.0573 15.0446 29.7517 18.8954 33.7815V11.3195C18.8954 11.0527 18.8272 10.802 18.6986 10.5946C15.5381 5.50478 9.46451 4.73144 6.12524 4.72363Z" fill="#0072FF"/>
<path d="M35.3284 27.6185V6.15502C35.3284 5.77091 35.1787 5.4101 34.9071 5.13912C34.6384 4.87111 34.2823 4.72363 33.9044 4.72363C33.9032 4.72363 33.902 4.72363 33.9009 4.72363C30.5617 4.73158 24.4882 5.50491 21.3275 10.5948C21.1989 10.8022 21.1309 11.0528 21.1309 11.3196V33.7815C24.9817 29.7517 30.5636 29.0573 33.8954 29.0494C34.6855 29.0474 35.3284 28.4055 35.3284 27.6185Z" fill="#0072FF"/>
<path d="M38.5659 9.6748H37.528V27.6198C37.528 29.6294 35.8907 31.268 33.8781 31.273C31.0521 31.2797 26.3924 31.8323 23.0923 34.9557C28.7998 33.5583 34.8165 34.4667 38.2455 35.2481C38.6736 35.3456 39.1161 35.2449 39.4591 34.9715C39.8009 34.6987 39.997 34.2911 39.997 33.8535V11.1059C39.9971 10.3168 39.355 9.6748 38.5659 9.6748Z" fill="white"/>
<path d="M2.47532 27.6188V9.67383H1.43747C0.648506 9.67383 0.00634766 10.3159 0.00634766 11.1049V33.8521C0.00634766 34.2898 0.202443 34.6973 0.544263 34.9701C0.887025 35.2433 1.32905 35.3445 1.75787 35.2467C5.18684 34.4651 11.2037 33.5569 16.9109 34.9543C13.611 31.8311 8.9513 31.2786 6.1253 31.2719C4.11276 31.267 2.47532 29.6284 2.47532 27.6188Z" fill="white"/>
</g>
<defs>
<clipPath id="clip0_299_616">
<rect width="40.0001" height="40" fill="white"/>
</clipPath>
</defs>
</svg>
