<svg width="40" height="40" viewBox="0 0 40 40" fill="none" xmlns="http://www.w3.org/2000/svg">
<path d="M15.5329 22.1338H20.6829V34.1338C20.6829 35.9004 22.8829 36.7338 24.0496 35.4004L36.6662 21.0671C37.7662 19.8171 36.8829 17.8671 35.2162 17.8671H30.0662V5.8671C30.0662 4.10044 27.8662 3.2671 26.6996 4.60044L14.0829 18.9338C12.9996 20.1838 13.8829 22.1338 15.5329 22.1338Z" fill="#0072FF"/>
<path d="M14.1667 7.91699H2.5C1.81667 7.91699 1.25 7.35033 1.25 6.66699C1.25 5.98366 1.81667 5.41699 2.5 5.41699H14.1667C14.85 5.41699 15.4167 5.98366 15.4167 6.66699C15.4167 7.35033 14.85 7.91699 14.1667 7.91699Z" fill="white"/>
<path d="M12.5 34.583H2.5C1.81667 34.583 1.25 34.0163 1.25 33.333C1.25 32.6497 1.81667 32.083 2.5 32.083H12.5C13.1833 32.083 13.75 32.6497 13.75 33.333C13.75 34.0163 13.1833 34.583 12.5 34.583Z" fill="white"/>
<path d="M7.5 21.25H2.5C1.81667 21.25 1.25 20.6833 1.25 20C1.25 19.3167 1.81667 18.75 2.5 18.75H7.5C8.18333 18.75 8.75 19.3167 8.75 20C8.75 20.6833 8.18333 21.25 7.5 21.25Z" fill="white"/>
</svg>
