<svg width="40" height="40" viewBox="0 0 40 40" fill="none" xmlns="http://www.w3.org/2000/svg">
<path d="M18.1255 16.25L13.438 21.25H22.8134L27.5009 16.25H18.1255Z" fill="white"/>
<path d="M3.75049 22.5V36.25C3.75049 36.9403 4.30961 37.5 5.00049 37.5H36.2505C36.9414 37.5 37.5005 36.9403 37.5005 36.25V22.5H3.75049ZM31.2505 28.75H10.0005C9.30961 28.75 8.75049 28.1903 8.75049 27.5C8.75049 26.8097 9.30961 26.25 10.0005 26.25H31.2505C31.9414 26.25 32.5005 26.8097 32.5005 27.5C32.5005 28.1903 31.9414 28.75 31.2505 28.75Z" fill="#0072FF"/>
<path d="M16.0648 7.38731L12.8833 13.4577L21.9179 10.9533L25.0994 4.88281L16.0648 7.38731Z" fill="white"/>
<path d="M3.41688 10.894C2.75113 11.0787 2.36188 11.7673 2.54625 12.4325L3.7505 16.2503L9.87188 14.2932L13.0534 8.22266L3.41688 10.894Z" fill="white"/>
<path d="M33.5307 2.54576L28.1097 4.04851L24.9282 10.119L36.071 7.03014L35.0692 3.41639C34.8848 2.75126 34.1966 2.36126 33.5307 2.54576Z" fill="white"/>
<path d="M3.75049 16.25V21.25H10.3129L15.0004 16.25H3.75049Z" fill="white"/>
<path d="M30.6255 16.25L25.938 21.25H37.501V16.25H30.6255Z" fill="white"/>
</svg>
