<svg width="40" height="40" viewBox="0 0 40 40" fill="none" xmlns="http://www.w3.org/2000/svg">
<g clip-path="url(#clip0_299_651)">
<path d="M19.976 11.875C11.3945 11.875 4.74023 21.3252 4.74023 29.4546C4.74023 38.9094 13.4363 40.0024 19.976 40.0024C26.5156 40.0024 35.2117 38.9094 35.2117 29.4546C35.2117 21.3252 28.5574 11.875 19.976 11.875ZM21.1799 31.5868C21.1694 31.5906 21.1585 31.5888 21.1479 31.5925V32.9705C21.1479 33.6183 20.6237 34.1424 19.976 34.1424C19.3282 34.1424 18.804 33.6182 18.804 32.9705V31.5844C18.0314 31.3237 17.2913 30.8291 16.6592 30.076C16.2427 29.5804 16.3067 28.8411 16.8034 28.4244C17.2979 28.0079 18.0372 28.0708 18.4538 28.5675C20.7646 31.3275 22.3245 27.1105 19.976 27.1105C18.0373 27.1105 16.4601 25.5334 16.4601 23.5946C16.4601 22.1922 17.263 20.8549 18.8041 20.3064V18.9066C18.8041 18.2588 19.3283 17.7347 19.976 17.7347C20.6238 17.7347 21.148 18.2589 21.148 18.9066V20.3102C21.7548 20.5147 22.3464 20.8394 22.8739 21.3502C23.3386 21.801 23.3524 22.5427 22.9014 23.0074C22.4506 23.4733 21.7088 23.4858 21.2442 23.0349C19.0882 20.9523 17.632 24.7666 19.9761 24.7666C21.9149 24.7666 23.4921 26.3437 23.4921 28.2825C23.4919 29.7544 22.5625 31.0833 21.1799 31.5868Z" fill="#0072FF"/>
<path d="M26.6793 0.94418C22.353 -0.314726 17.6376 -0.314726 13.3114 0.94418C12.5855 1.15426 12.2389 1.99715 12.6293 2.66324L14.4019 5.83668C17.4843 4.61019 22.0562 4.42707 25.5884 5.83723L27.3613 2.66324C27.7517 1.99715 27.4052 1.15434 26.6793 0.94418Z" fill="white"/>
<path d="M25.4533 8.39099C23.2605 6.84614 16.828 6.78169 14.5566 8.39817C13.5827 9.0856 13.0643 10.1656 13.0744 11.2938C15.3248 10.1016 17.9636 9.52856 20.0117 9.52856C22.5063 9.52856 24.8431 10.1781 26.9492 11.2938C26.9589 10.2068 26.4759 9.11208 25.4533 8.39099Z" fill="white"/>
</g>
<defs>
<clipPath id="clip0_299_651">
<rect width="40.0001" height="40" fill="white"/>
</clipPath>
</defs>
</svg>
