<svg width="40" height="40" viewBox="0 0 40 40" fill="none" xmlns="http://www.w3.org/2000/svg">
<path d="M34.6973 12.3606L20.3573 3.43398C20.1439 3.30065 19.8706 3.30065 19.6573 3.43398L5.31724 12.3606C5.12391 12.4806 5.00391 12.694 5.00391 12.9273V15.514C5.00391 15.8806 5.30391 16.1806 5.67057 16.1806H34.3439C34.7106 16.1806 35.0106 15.8806 35.0106 15.514V12.9273C35.0106 12.694 34.8906 12.4806 34.6973 12.3606ZM20.0106 13.714C18.4839 13.714 17.2439 12.474 17.2439 10.9473C17.2439 9.42065 18.4839 8.18065 20.0106 8.18065C21.5373 8.18065 22.7773 9.42065 22.7773 10.9473C22.7773 12.474 21.5373 13.714 20.0106 13.714Z" fill="#0072FF"/>
<path d="M27.0234 17.5156H31.9568V27.6823H27.0234V17.5156Z" fill="#0072FF"/>
<path d="M17.5195 17.5156H22.4529V27.6823H17.5195V17.5156Z" fill="white"/>
<path d="M8.05078 17.5156H12.9841V27.6823H8.05078V17.5156Z" fill="#0072FF"/>
<path d="M36.6654 32.828V36.0013C36.6654 36.368 36.3654 36.668 35.9987 36.668H3.9987C3.62536 36.668 3.33203 36.368 3.33203 36.0013V32.828C3.33203 32.4613 3.62536 32.1613 3.9987 32.1613H5.5987V29.6813C5.5987 29.3146 5.8987 29.0146 6.26537 29.0146H33.7321C34.0987 29.0146 34.3987 29.3146 34.3987 29.6813V32.1613H35.9987C36.3654 32.1613 36.6654 32.4613 36.6654 32.828Z" fill="white"/>
</svg>
