<svg width="41" height="41" viewBox="0 0 41 41" fill="none" xmlns="http://www.w3.org/2000/svg">
<path d="M20.3115 6.043C11.5927 -1.58281 0.506883 5.11745 0.3251 14.2007C0.278775 16.5156 0.947005 18.7705 2.27714 20.8493H10.8987L12.4321 18.2935C12.8774 17.5514 13.955 17.5275 14.4255 18.2673L17.661 23.3515L22.3772 13.3952C22.7885 12.5264 24.0143 12.4988 24.4679 13.3413L28.5108 20.8493H38.3458C45.6313 9.46273 31.2327 -3.50899 20.3115 6.043Z" fill="#0072FF"/>
<path d="M26.7661 22.5762L23.4901 16.4922L18.8576 26.2719C18.4635 27.1039 17.3043 27.1762 16.81 26.3994L13.4532 21.1246L12.5538 22.6235C12.3421 22.9764 11.9607 23.1924 11.5491 23.1924H4.11777C4.35072 23.4362 3.10917 22.1971 19.4719 38.4751C19.9289 38.9298 20.6677 38.9299 21.1247 38.4751C37.2357 22.4476 36.2464 23.4357 36.4789 23.1924H27.7978C27.3667 23.1924 26.9705 22.9557 26.7661 22.5762Z" fill="white"/>
</svg>
