<svg width="41" height="40" viewBox="0 0 41 40" fill="none" xmlns="http://www.w3.org/2000/svg">
<path d="M19.9886 5.27249C11.2698 -2.35332 0.184037 4.34694 0.00225421 13.4302C-0.0440704 15.7451 0.62416 18 1.95429 20.0788H10.5758L12.1093 17.5229C12.5546 16.7809 13.6321 16.757 14.1027 17.4968L17.3381 22.581L22.0544 12.6247C22.4657 11.7559 23.6915 11.7283 24.1451 12.5708L28.1879 20.0788H38.0229C45.3085 8.69222 30.9098 -4.2795 19.9886 5.27249Z" fill="#0072FF"/>
<path d="M26.4433 21.8057L23.1673 15.7217L18.5347 25.5014C18.1406 26.3334 16.9814 26.4057 16.4872 25.6289L13.1304 20.3541L12.231 21.853C12.0192 22.2059 11.6378 22.4219 11.2262 22.4219H3.79492C4.02787 22.6657 2.78633 21.4266 19.1491 37.7046C19.6061 38.1593 20.3448 38.1594 20.8019 37.7046C36.9129 21.6771 35.9236 22.6652 36.156 22.4219H27.475C27.0438 22.4219 26.6476 22.1852 26.4433 21.8057Z" fill="white"/>
</svg>
