<svg width="40" height="40" viewBox="0 0 40 40" fill="none" xmlns="http://www.w3.org/2000/svg">
<path fill-rule="evenodd" clip-rule="evenodd" d="M36.429 19.0616L34.2722 13.9831C34.147 13.6884 33.8733 13.5073 33.5531 13.5073H28.8692C28.4389 13.5073 28.0879 13.8582 28.0879 14.2885V18.8236C28.0879 19.2539 28.4389 19.6048 28.8692 19.6048H36.0694C36.2045 19.6048 36.3206 19.5424 36.3951 19.4298C36.4697 19.3172 36.4817 19.1859 36.429 19.0616ZM0.625 28.8261V25.3684H25.061V30.3885H14.8183C14.8183 27.757 12.6842 25.6229 10.0527 25.6229C7.4211 25.6229 5.28704 27.757 5.28704 30.3885H2.18742C1.32688 30.3885 0.625 29.6866 0.625 28.8261ZM32.5306 28.6307C31.5591 28.6307 30.7728 29.417 30.7728 30.3885C30.7728 31.36 31.559 32.1463 32.5306 32.1463C33.5021 32.1463 34.2884 31.3601 34.2884 30.3885C34.2884 29.417 33.5021 28.6307 32.5306 28.6307ZM32.5306 26.8729C34.4722 26.8729 36.0462 28.4469 36.0462 30.3885C36.0462 32.3302 34.4722 33.9041 32.5306 33.9041C30.5889 33.9041 29.015 32.3302 29.015 30.3885C29.015 28.4469 30.5889 26.8729 32.5306 26.8729ZM10.0526 28.6307C9.08111 28.6307 8.29485 29.417 8.29485 30.3885C8.29485 31.36 9.08111 32.1463 10.0526 32.1463C11.0241 32.1463 11.8104 31.3601 11.8104 30.3885C11.8105 29.417 11.0242 28.6307 10.0526 28.6307ZM10.0526 26.8729C8.11095 26.8729 6.53696 28.4469 6.53696 30.3885C6.53696 32.3302 8.11095 33.9041 10.0526 33.9041C11.9942 33.9041 13.5682 32.3302 13.5682 30.3885C13.5683 28.4469 11.9943 26.8729 10.0526 26.8729ZM26.3111 11.1055H34.3204C35.1436 11.1055 35.8459 11.5445 36.1436 12.2455L39.2428 19.5428C39.3344 19.7587 39.3751 19.9567 39.3751 20.1883V29.2166C39.3751 29.8621 38.8486 30.3885 38.2032 30.3885H37.2962C37.2962 27.757 35.1622 25.6229 32.5306 25.6229C29.899 25.6229 27.765 27.757 27.765 30.3885H26.3111V11.1055Z" fill="white"/>
<path d="M11.0266 6.0918H15.2844V13.0325H11.0266V6.0918Z" fill="#0072FF"/>
<path d="M0.625 7.65422V24.1188H25.061V7.65422C25.061 6.79375 24.3591 6.0918 23.4985 6.0918H16.5344V13.5012C16.5344 13.9316 16.1835 14.2825 15.7531 14.2825H10.5578C10.1275 14.2825 9.77658 13.9316 9.77658 13.5012V6.0918H2.18742C1.32688 6.0918 0.625 6.79367 0.625 7.65422Z" fill="#0072FF"/>
</svg>
