<svg width="40" height="40" viewBox="0 0 40 40" fill="none" xmlns="http://www.w3.org/2000/svg">
<path d="M26.6673 6.25H13.334C12.6507 6.25 12.084 5.68333 12.084 5C12.084 4.31667 12.6507 3.75 13.334 3.75H26.6673C27.3507 3.75 27.9173 4.31667 27.9173 5C27.9173 5.68333 27.3507 6.25 26.6673 6.25Z" fill="white"/>
<path d="M26.6673 36.25H13.334C12.6507 36.25 12.084 35.6833 12.084 35C12.084 34.3167 12.6507 33.75 13.334 33.75H26.6673C27.3507 33.75 27.9173 34.3167 27.9173 35C27.9173 35.6833 27.3507 36.25 26.6673 36.25Z" fill="white"/>
<path d="M25.834 8.33398H14.1673C10.284 8.33398 8.33398 10.284 8.33398 14.1673V25.834C8.33398 29.7173 10.284 31.6673 14.1673 31.6673H25.834C29.7173 31.6673 31.6673 29.7173 31.6673 25.834V14.1673C31.6673 10.284 29.7173 8.33398 25.834 8.33398ZM24.1673 22.084H19.1673C18.484 22.084 17.9173 21.5173 17.9173 20.834V15.834C17.9173 15.1507 18.484 14.584 19.1673 14.584C19.8507 14.584 20.4173 15.1507 20.4173 15.834V19.584H24.1673C24.8507 19.584 25.4173 20.1507 25.4173 20.834C25.4173 21.5173 24.8507 22.084 24.1673 22.084Z" fill="#0072FF"/>
</svg>
