<svg width="40" height="40" viewBox="0 0 40 40" fill="none" xmlns="http://www.w3.org/2000/svg">
<g clip-path="url(#clip0_299_570)">
<path d="M39.9944 13.333H0.00146484V14.9997C0.00146484 15.8837 0.352655 16.7316 0.977777 17.3567C1.6029 17.9818 2.45075 18.333 3.3348 18.333H8.33481C9.21887 18.333 10.0667 17.9818 10.6918 17.3567C11.317 16.7316 11.6682 15.8837 11.6682 14.9997C11.6682 15.8837 12.0193 16.7316 12.6445 17.3567C13.2696 17.9818 14.1174 18.333 15.0015 18.333H25.0015C25.8856 18.333 26.7334 17.9818 27.3585 17.3567C27.9837 16.7316 28.3348 15.8837 28.3348 14.9997C28.3348 15.8837 28.686 16.7316 29.3112 17.3567C29.9363 17.9818 30.7841 18.333 31.6682 18.333H36.6682C37.5523 18.333 38.4001 17.9818 39.0252 17.3567C39.6503 16.7316 40.0015 15.8837 40.0015 14.9997V13.333H39.9944Z" fill="white"/>
<path d="M39.6011 11.6667L36.6132 1.20833C36.5136 0.860178 36.3034 0.553927 36.0142 0.335912C35.7251 0.117897 35.3728 -2.01939e-05 35.0107 2.59396e-09L27.377 2.59396e-09L29.7103 11.6667H39.6011Z" fill="white"/>
<path d="M12.6475 2.59396e-09H5.01377C4.65165 -2.01939e-05 4.29937 0.117897 4.01024 0.335912C3.72111 0.553927 3.51084 0.860178 3.41126 1.20833L0.42334 11.6667H10.3142L12.6475 2.59396e-09Z" fill="white"/>
<path d="M23.9804 0H16.0462L13.7129 11.6667H26.3137L23.9804 0Z" fill="white"/>
<path d="M31.6812 19.997C30.4506 19.998 29.2631 19.5433 28.3479 18.7207C27.4326 19.5433 26.2452 19.998 25.0145 19.997H15.0145C13.7839 19.998 12.5964 19.5433 11.6812 18.7207C10.7659 19.5433 9.57846 19.998 8.34783 19.997H3.34782C2.77967 19.9958 2.21594 19.8971 1.68115 19.7053V38.3303C1.68115 38.7723 1.85675 39.1963 2.16931 39.5088C2.48187 39.8214 2.90579 39.997 3.34782 39.997H6.68116V24.997C6.68116 24.5549 6.85676 24.131 7.16932 23.8184C7.48188 23.5059 7.9058 23.3303 8.34783 23.3303H16.6812C17.1232 23.3303 17.5471 23.5059 17.8597 23.8184C18.1723 24.131 18.3479 24.5549 18.3479 24.997V39.997H36.6812C37.1232 39.997 37.5472 39.8214 37.8597 39.5088C38.1723 39.1963 38.3479 38.7723 38.3479 38.3303V19.7053C37.8131 19.8971 37.2494 19.9958 36.6812 19.997H31.6812ZM33.3479 29.997C33.3479 30.439 33.1723 30.8629 32.8597 31.1755C32.5472 31.488 32.1232 31.6636 31.6812 31.6636H23.3479C22.9058 31.6636 22.4819 31.488 22.1693 31.1755C21.8568 30.8629 21.6812 30.439 21.6812 29.997V24.997C21.6812 24.5549 21.8568 24.131 22.1693 23.8184C22.4819 23.5059 22.9058 23.3303 23.3479 23.3303H31.6812C32.1232 23.3303 32.5472 23.5059 32.8597 23.8184C33.1723 24.131 33.3479 24.5549 33.3479 24.997V29.997Z" fill="#0072FF"/>
</g>
<defs>
<clipPath id="clip0_299_570">
<rect width="40.0001" height="40" fill="white"/>
</clipPath>
</defs>
</svg>
