<svg width="40" height="40" viewBox="0 0 40 40" fill="none" xmlns="http://www.w3.org/2000/svg">
<path d="M13.0001 36.9167C8.5834 36.9167 4.9834 33.3334 4.9834 28.9001V24.1667C4.9834 23.0501 6.0834 22.3001 7.1334 22.6667C7.56673 22.8167 8.00007 22.9167 8.45007 22.9834C8.65007 23.0167 8.85006 23.0501 9.05006 23.0501C9.30006 23.0834 9.56673 23.1001 9.81673 23.1001C11.6667 23.1001 13.5001 22.4167 14.9501 21.2334C16.3334 22.4167 18.1167 23.1001 20.0167 23.1001C21.9167 23.1001 23.6834 22.4501 25.0667 21.2501C26.5001 22.4167 28.3001 23.1001 30.1334 23.1001C30.4167 23.1001 30.7167 23.0834 30.9834 23.0501C31.1834 23.0334 31.3501 23.0167 31.5334 22.9834C32.0334 22.9167 32.4834 22.7834 32.9334 22.6334C33.9667 22.2834 35.0501 23.0501 35.0501 24.1334V28.9001C35.0501 33.3167 31.4667 36.9167 27.0334 36.9167H13.0001Z" fill="#0072FF"/>
<path d="M36.6337 14.3173L36.1671 9.88398C35.5004 5.05065 33.3004 3.08398 28.6171 3.08398H11.3671C6.66707 3.08398 4.48374 5.05065 3.8004 9.93398L3.36707 14.334C3.2004 16.0507 3.66707 17.7173 4.68374 19.0173C5.9004 20.6007 7.76707 21.5007 9.8504 21.5007C11.8671 21.5007 13.8004 20.484 15.0337 18.8673C16.1171 20.484 17.9671 21.5007 20.0337 21.5007C22.1004 21.5007 23.9171 20.534 25.0171 18.934C26.2504 20.5173 28.1671 21.5007 30.1504 21.5007C32.2837 21.5007 34.2004 20.5507 35.4004 18.884C36.3671 17.6007 36.8004 15.984 36.6337 14.3173ZM22.5004 12.884H17.5004C16.8171 12.884 16.2504 12.334 16.2504 11.634C16.2504 10.9507 16.8171 10.384 17.5004 10.384H22.5004C23.1837 10.384 23.7504 10.9507 23.7504 11.634C23.7504 12.334 23.1837 12.884 22.5004 12.884Z" fill="white"/>
</svg>
