<svg width="40" height="40" viewBox="0 0 40 40" fill="none" xmlns="http://www.w3.org/2000/svg">
<g clip-path="url(#clip0_299_600)">
<path d="M17.6064 25.2412C16.8436 25.2412 16.1263 24.9439 15.5859 24.4044C11.3177 20.1358 11.3177 13.1904 15.5859 8.92203L21.3061 3.2018C23.3704 1.13703 26.1194 0 29.047 0C31.9746 0 34.7235 1.13703 36.7878 3.2018C41.0559 7.47016 41.0559 14.4156 36.7878 18.6839L32.9746 22.4973C32.435 23.0371 31.7178 23.3344 30.954 23.3346C30.1912 23.3346 29.4739 23.0373 28.9335 22.4978C28.3939 21.958 28.0962 21.2403 28.0962 20.4768C28.0962 19.7135 28.3939 18.9958 28.9335 18.456L32.7467 14.6426C34.7868 12.6025 34.7868 9.28328 32.7467 7.24336C31.7606 6.25727 30.4461 5.71399 29.047 5.71399C27.6478 5.71399 26.3334 6.25727 25.3473 7.24336L19.627 12.9636C17.587 15.0034 17.587 18.3227 19.627 20.3626C20.7415 21.4768 20.7415 23.2899 19.627 24.4041C19.0865 24.944 18.3692 25.2412 17.6064 25.2412Z" fill="#0072FF"/>
<path d="M10.9204 40.0007C7.99282 40.0007 5.24383 38.8637 3.17961 36.7989C-1.08852 32.5305 -1.08852 25.5852 3.17961 21.3168L6.04024 18.4564C6.57977 17.9169 7.29798 17.6196 8.06079 17.6196C8.8236 17.6196 9.54181 17.917 10.0813 18.4569C10.6209 18.9964 10.9186 19.7141 10.9186 20.4774C10.9186 21.2409 10.621 21.9587 10.0813 22.4984L7.22071 25.3586C5.18063 27.3982 5.18063 30.7174 7.22071 32.7573C8.20681 33.7434 9.52126 34.2867 10.9204 34.2867C12.3195 34.2867 13.634 33.7437 14.6201 32.7573L20.3403 27.0371C22.3804 24.9973 22.3804 21.678 20.3403 19.6381C19.8008 19.0984 19.5031 18.3806 19.5031 17.6173C19.5031 16.8541 19.8007 16.1363 20.3403 15.5966C20.8799 15.0568 21.5981 14.7598 22.3609 14.7598C23.1237 14.7598 23.8419 15.0567 24.3814 15.5963C28.6496 19.8649 28.6496 26.8103 24.3814 31.0787L18.6612 36.7989C16.597 38.8637 13.848 40.0007 10.9204 40.0007Z" fill="white"/>
</g>
<defs>
<clipPath id="clip0_299_600">
<rect width="40.0001" height="40" fill="white"/>
</clipPath>
</defs>
</svg>
