<svg width="40" height="40" viewBox="0 0 40 40" fill="none" xmlns="http://www.w3.org/2000/svg">
<path d="M18.75 30.4163H15C13.1667 30.4163 11.6667 31.9163 11.6667 33.7496V34.1663H10C9.31667 34.1663 8.75 34.7329 8.75 35.4163C8.75 36.0996 9.31667 36.6663 10 36.6663H30C30.6833 36.6663 31.25 36.0996 31.25 35.4163C31.25 34.7329 30.6833 34.1663 30 34.1663H28.3333V33.7496C28.3333 31.9163 26.8333 30.4163 25 30.4163H21.25V26.5996C20.8333 26.6496 20.4167 26.6663 20 26.6663C19.5833 26.6663 19.1667 26.6496 18.75 26.5996V30.4163Z" fill="white"/>
<path d="M30.7998 19.4007C31.8998 18.984 32.8665 18.3007 33.6331 17.534C35.1831 15.8173 36.1998 13.7673 36.1998 11.3673C36.1998 8.96732 34.3165 7.08398 31.9165 7.08398H30.9831C29.8998 4.86732 27.6331 3.33398 24.9998 3.33398H14.9998C12.3665 3.33398 10.0998 4.86732 9.01647 7.08398H8.08314C5.68314 7.08398 3.7998 8.96732 3.7998 11.3673C3.7998 13.7673 4.81647 15.8173 6.36647 17.534C7.13314 18.3007 8.0998 18.984 9.1998 19.4007C10.9331 23.6673 15.0998 26.6673 19.9998 26.6673C24.8998 26.6673 29.0665 23.6673 30.7998 19.4007ZM24.7331 14.084L23.6998 15.3507C23.5331 15.534 23.4165 15.9007 23.4331 16.1507L23.5331 17.784C23.5998 18.784 22.8831 19.3007 21.9498 18.934L20.4331 18.334C20.1998 18.2507 19.7998 18.2507 19.5665 18.334L18.0498 18.934C17.1165 19.3007 16.3998 18.784 16.4665 17.784L16.5665 16.1507C16.5831 15.9007 16.4665 15.534 16.2998 15.3507L15.2665 14.084C14.6165 13.3173 14.8998 12.4673 15.8665 12.2173L17.4498 11.8173C17.6998 11.7507 17.9998 11.5173 18.1331 11.3007L19.0165 9.93398C19.5665 9.08398 20.4331 9.08398 20.9831 9.93398L21.8665 11.3007C21.9998 11.5173 22.2998 11.7507 22.5498 11.8173L24.1331 12.2173C25.0998 12.4673 25.3831 13.3173 24.7331 14.084Z" fill="#0072FF"/>
</svg>
