<svg width="40" height="40" viewBox="0 0 40 40" fill="none" xmlns="http://www.w3.org/2000/svg">
<g clip-path="url(#clip0_299_592)">
<path d="M25.1563 3.04785C25.1563 2.6602 25.4717 2.34473 25.8594 2.34473H29.9219C30.3096 2.34473 30.625 2.6602 30.625 3.04785V7.23653H32.9688V3.04785C32.9688 1.36777 31.602 0.000976562 29.9219 0.000976562H25.8594C24.1793 0.000976562 22.8125 1.36777 22.8125 3.04785V7.23653H25.1563V3.04785Z" fill="white"/>
<path d="M14.2452 37.657C13.7331 36.8614 13.4375 35.9195 13.4375 34.9226V17.3535H2.73438C1.22664 17.3535 0 18.5802 0 20.0879V34.9226C0 36.2977 1.02039 37.4385 2.34375 37.6287V38.8286C2.34375 39.4758 2.86844 40.0005 3.51563 40.0005C4.16282 40.0005 4.68751 39.4758 4.68751 38.8286V37.6569H14.2452V37.657ZM4.68751 21.6504C4.68751 21.0032 5.21219 20.4785 5.85938 20.4785C6.50657 20.4785 7.03126 21.0032 7.03126 21.6504V33.3601C7.03126 34.0073 6.50657 34.532 5.85938 34.532C5.21219 34.532 4.68751 34.0073 4.68751 33.3601V21.6504Z" fill="white"/>
<path d="M10.9375 13.165C10.9375 12.7774 11.253 12.4619 11.6406 12.4619H13.4375V12.3146C13.4375 11.5283 13.6172 10.7832 13.9377 10.1182H11.6406C9.96055 10.1182 8.59375 11.485 8.59375 13.165V15.01H10.9375V13.165Z" fill="white"/>
<path d="M37.2656 9.58008H18.5156C17.0079 9.58008 15.7812 10.8067 15.7812 12.3145V34.9226C15.7812 36.2977 16.8016 37.4385 18.125 37.6287V38.8286C18.125 39.4758 18.6497 40.0005 19.2969 40.0005C19.9441 40.0005 20.4688 39.4758 20.4688 38.8286V37.6569H35.3125V38.8286C35.3125 39.4758 35.8372 40.0005 36.4844 40.0005C37.1316 40.0005 37.6563 39.4758 37.6563 38.8286V37.6287C38.9796 37.4385 40 36.2977 40 34.9226V12.3145C40 10.8066 38.7734 9.58008 37.2656 9.58008ZM22.8125 33.3602C22.8125 34.0073 22.2878 34.532 21.6406 34.532C20.9934 34.532 20.4688 34.0073 20.4688 33.3602V13.877C20.4688 13.2298 20.9934 12.7051 21.6406 12.7051C22.2878 12.7051 22.8125 13.2298 22.8125 13.877V33.3602ZM34.1406 34.532C33.4935 34.532 32.9688 34.0073 32.9688 33.3602V13.877C32.9688 13.2298 33.4935 12.7051 34.1406 12.7051C34.7878 12.7051 35.3125 13.2298 35.3125 13.877V33.3602C35.3125 34.0073 34.7878 34.532 34.1406 34.532Z" fill="#0072FF"/>
</g>
<defs>
<clipPath id="clip0_299_592">
<rect width="40.0001" height="40" fill="white"/>
</clipPath>
</defs>
</svg>
