<svg width="24" height="24" viewBox="0 0 24 24" fill="none" xmlns="http://www.w3.org/2000/svg">
<mask id="mask0_359_35" style="mask-type:alpha" maskUnits="userSpaceOnUse" x="0" y="0" width="24" height="24">
<rect width="24" height="24" fill="#D9D9D9"/>
</mask>
<g mask="url(#mask0_359_35)">
<path d="M7.09999 11.3502C7.33332 10.8835 7.57499 10.4335 7.82499 10.0002C8.07499 9.56687 8.34999 9.13354 8.64999 8.7002L7.24999 8.4252L5.14999 10.5252L7.09999 11.3502ZM19.15 4.4752C17.9833 4.50854 16.7375 4.8502 15.4125 5.5002C14.0875 6.1502 12.8833 7.01687 11.8 8.1002C11.1 8.8002 10.475 9.5502 9.92499 10.3502C9.37499 11.1502 8.96665 11.9002 8.69999 12.6002L11.55 15.4252C12.25 15.1585 13 14.7502 13.8 14.2002C14.6 13.6502 15.35 13.0252 16.05 12.3252C17.1333 11.2419 18 10.0419 18.65 8.7252C19.3 7.40854 19.6417 6.16687 19.675 5.0002C19.675 4.93354 19.6625 4.86687 19.6375 4.8002C19.6125 4.73354 19.575 4.6752 19.525 4.6252C19.475 4.5752 19.4167 4.5377 19.35 4.5127C19.2833 4.4877 19.2167 4.4752 19.15 4.4752ZM13.65 10.4752C13.2667 10.0919 13.075 9.62104 13.075 9.0627C13.075 8.50437 13.2667 8.03354 13.65 7.6502C14.0333 7.26687 14.5083 7.0752 15.075 7.0752C15.6417 7.0752 16.1167 7.26687 16.5 7.6502C16.8833 8.03354 17.075 8.50437 17.075 9.0627C17.075 9.62104 16.8833 10.0919 16.5 10.4752C16.1167 10.8585 15.6417 11.0502 15.075 11.0502C14.5083 11.0502 14.0333 10.8585 13.65 10.4752ZM12.8 17.0252L13.625 19.0002L15.725 16.9002L15.45 15.5002C15.0167 15.8002 14.5833 16.071 14.15 16.3127C13.7167 16.5544 13.2667 16.7919 12.8 17.0252ZM21.575 3.6752C21.7083 5.50854 21.4083 7.29604 20.675 9.0377C19.9417 10.7794 18.7833 12.4419 17.2 14.0252L17.7 16.5002C17.7667 16.8335 17.75 17.1585 17.65 17.4752C17.55 17.7919 17.3833 18.0669 17.15 18.3002L14 21.4502C13.75 21.7002 13.45 21.796 13.1 21.7377C12.75 21.6794 12.5083 21.4835 12.375 21.1502L10.85 17.5752L6.57499 13.3002L2.99999 11.7752C2.66665 11.6419 2.46665 11.4002 2.39999 11.0502C2.33332 10.7002 2.42499 10.4002 2.67499 10.1502L5.82499 7.0002C6.05832 6.76687 6.33749 6.6002 6.66249 6.5002C6.98749 6.4002 7.31665 6.38354 7.64999 6.4502L10.125 6.9502C11.7083 5.36687 13.3708 4.20854 15.1125 3.4752C16.8542 2.74187 18.6417 2.44187 20.475 2.5752C20.6083 2.59187 20.7417 2.62937 20.875 2.6877C21.0083 2.74604 21.125 2.8252 21.225 2.9252C21.325 3.0252 21.4042 3.14187 21.4625 3.2752C21.5208 3.40854 21.5583 3.54187 21.575 3.6752ZM3.92499 15.9752C4.50832 15.3919 5.22082 15.096 6.06249 15.0877C6.90415 15.0794 7.61665 15.3669 8.19999 15.9502C8.78332 16.5335 9.07082 17.246 9.06249 18.0877C9.05415 18.9294 8.75832 19.6419 8.17499 20.2252C7.37499 21.0252 6.42915 21.5002 5.33749 21.6502C4.24582 21.8002 3.14999 21.9502 2.04999 22.1002C2.19999 21.0002 2.34999 19.9044 2.49999 18.8127C2.64999 17.721 3.12499 16.7752 3.92499 15.9752ZM5.34999 17.3752C5.06665 17.6585 4.87082 18.0002 4.76249 18.4002C4.65415 18.8002 4.56665 19.2085 4.49999 19.6252C4.91665 19.5585 5.32499 19.4752 5.72499 19.3752C6.12499 19.2752 6.46665 19.0835 6.74999 18.8002C6.94999 18.6002 7.05832 18.3585 7.07499 18.0752C7.09165 17.7919 6.99999 17.5502 6.79999 17.3502C6.59999 17.1502 6.35832 17.0544 6.07499 17.0627C5.79165 17.071 5.54999 17.1752 5.34999 17.3752Z" fill="white"/>
</g>
</svg>
