<svg width="50" height="50" viewBox="0 0 50 50" fill="none" xmlns="http://www.w3.org/2000/svg">
<rect width="50" height="50" fill="white"/>
<g clip-path="url(#clip0_403_144)">
<path d="M37.1852 6H12.8149C9.05113 6 6 9.05113 6 12.8149V37.1852C6 40.9489 9.05113 44 12.8149 44H37.1852C40.9489 44 44 40.9489 44 37.1852V12.8149C44 9.05113 40.9489 6 37.1852 6Z" fill="#00005B"/>
<path d="M15.7121 16.0859H21.3071L27.5818 33.6028H22.4574L21.5946 30.936H15.0324L14.1696 33.6028H9.25439L15.7121 16.0859ZM20.2351 26.779L18.3266 20.8965L16.418 26.779H20.2351Z" fill="#9999FF"/>
<path d="M40.7457 26.3875C40.7457 27.0151 40.6934 27.6948 40.615 28.2177H32.0657C32.5886 29.525 33.8436 30.1523 35.8044 30.1523C37.2161 30.1523 38.445 29.891 39.6738 29.3158L39.7261 32.9499C38.3927 33.6296 36.9549 33.8649 35.0985 33.8649C30.5232 33.8649 27.4644 31.3289 27.4644 26.7275C27.4644 22.5181 30.3925 19.7207 34.2618 19.7207C38.2359 19.7207 40.7457 22.2829 40.7457 26.3875ZM31.9089 25.2372H36.4841C36.3796 24.0084 35.6214 23.1457 34.288 23.1457C33.0069 23.1457 32.1964 23.8254 31.9089 25.2372Z" fill="#9999FF"/>
</g>
<defs>
<clipPath id="clip0_403_144">
<rect width="38" height="38" fill="white" transform="translate(6 6)"/>
</clipPath>
</defs>
</svg>
