<svg width="50" height="50" viewBox="0 0 50 50" fill="none" xmlns="http://www.w3.org/2000/svg">
<rect width="50" height="50" fill="white"/>
<g clip-path="url(#clip0_403_99)">
<path d="M18.5011 44.9925C22.0884 44.9925 24.9998 42.0811 24.9998 38.4938V31.9951H18.5011C14.9139 31.9951 12.0024 34.9065 12.0024 38.4938C12.0024 42.0811 14.9139 44.9925 18.5011 44.9925Z" fill="#0ACF83"/>
<path d="M12.0024 25.4958C12.0024 21.9085 14.9139 18.9971 18.5011 18.9971H24.9998V31.9945H18.5011C14.9139 31.9945 12.0024 29.0831 12.0024 25.4958Z" fill="#A259FF"/>
<path d="M12.0029 12.4987C12.0029 8.91142 14.9143 6 18.5016 6H25.0003V18.9974H18.5016C14.9143 18.9974 12.0029 16.086 12.0029 12.4987Z" fill="#F24E1E"/>
<path d="M25 6H31.4987C35.086 6 37.9974 8.91142 37.9974 12.4987C37.9974 16.086 35.086 18.9974 31.4987 18.9974H25V6Z" fill="#FF7262"/>
<path d="M37.9974 25.4958C37.9974 29.0831 35.086 31.9945 31.4987 31.9945C27.9114 31.9945 25 29.0831 25 25.4958C25 21.9085 27.9114 18.9971 31.4987 18.9971C35.086 18.9971 37.9974 21.9085 37.9974 25.4958Z" fill="#1ABCFE"/>
</g>
<defs>
<clipPath id="clip0_403_99">
<rect width="26" height="38.9922" fill="white" transform="translate(12 6)"/>
</clipPath>
</defs>
</svg>
