<svg width="50" height="50" viewBox="0 0 50 50" fill="none" xmlns="http://www.w3.org/2000/svg">
<rect width="50" height="50" fill="white"/>
<path d="M11.0583 41.8609L9.85272 9.73779C9.8129 8.67689 10.6264 7.77779 11.6859 7.71156L39.0089 6.00388C40.0875 5.93647 41.0164 6.75614 41.0838 7.83467C41.0864 7.8753 41.0876 7.91601 41.0876 7.95672V42.9606C41.0876 44.0412 40.2116 44.9172 39.131 44.9172C39.1017 44.9172 39.0724 44.9166 39.0432 44.9153L12.9258 43.7423C11.9086 43.6966 11.0965 42.8784 11.0583 41.8609Z" fill="#FF4785"/>
<mask id="mask0_403_146" style="mask-type:luminance" maskUnits="userSpaceOnUse" x="9" y="6" width="33" height="39">
<path d="M11.0583 41.8609L9.85272 9.73779C9.8129 8.67689 10.6264 7.77779 11.6859 7.71156L39.0089 6.00388C40.0875 5.93647 41.0164 6.75614 41.0838 7.83467C41.0864 7.8753 41.0876 7.91601 41.0876 7.95672V42.9606C41.0876 44.0412 40.2116 44.9172 39.131 44.9172C39.1017 44.9172 39.0724 44.9166 39.0432 44.9153L12.9258 43.7423C11.9086 43.6966 11.0965 42.8784 11.0583 41.8609Z" fill="white"/>
</mask>
<g mask="url(#mask0_403_146)">
<path d="M32.917 10.7835L33.1036 6.29482L36.8559 6L37.0175 10.6291C37.0231 10.7902 36.8971 10.9253 36.736 10.931C36.667 10.9334 36.5994 10.9113 36.5452 10.8685L35.0982 9.72865L33.385 11.0282C33.2566 11.1256 33.0735 11.1005 32.976 10.9721C32.935 10.918 32.9141 10.8513 32.917 10.7835ZM28.1182 20.6684C28.1182 21.4297 33.2459 21.0648 33.9342 20.5301C33.9342 15.3462 31.1526 12.6221 26.0591 12.6221C20.9655 12.6221 18.1117 15.3885 18.1117 19.5383C18.1117 26.7657 27.8653 26.904 27.8653 30.8462C27.8653 31.9528 27.3234 32.6098 26.1313 32.6098C24.578 32.6098 23.9638 31.8165 24.0361 29.1192C24.0361 28.5341 18.1117 28.3516 17.931 29.1192C17.4711 35.6558 21.5435 37.5411 26.2036 37.5411C30.7191 37.5411 34.2593 35.1342 34.2593 30.777C34.2593 23.0309 24.3612 23.2384 24.3612 19.3999C24.3612 17.8438 25.5172 17.6363 26.2036 17.6363C26.9261 17.6363 28.2265 17.7636 28.1182 20.6684Z" fill="white"/>
</g>
</svg>
