<svg width="50" height="50" viewBox="0 0 50 50" fill="none" xmlns="http://www.w3.org/2000/svg">
<rect width="50" height="50" fill="white"/>
<g clip-path="url(#clip0_403_107)">
<path d="M12.9062 6H38.0937C41.9125 6 45 9.0875 45 12.9063V37.1188C45 40.9375 41.9125 44.025 38.0937 44.025H12.9062C9.0875 44.025 6 40.9375 6 37.1188V12.9063C6 9.0875 9.0875 6 12.9062 6Z" fill="#470137"/>
<path d="M26.5075 15.9938L21.6325 24.0375L26.8325 32.5688C26.865 32.6338 26.8813 32.6988 26.865 32.7638C26.8488 32.8288 26.7838 32.78 26.6863 32.7962H22.965C22.705 32.7962 22.5263 32.78 22.4125 32.6175C22.0713 31.935 21.7138 31.2688 21.3725 30.5863C21.0313 29.92 20.6575 29.2375 20.2675 28.5388C19.8775 27.84 19.4875 27.1413 19.0975 26.4263H19.065C18.7238 27.125 18.35 27.8238 17.9763 28.5225C17.6025 29.2213 17.2288 29.92 16.8713 30.6025C16.4975 31.285 16.1238 31.9838 15.75 32.65C15.685 32.8125 15.555 32.8288 15.3763 32.8288H11.8013C11.7363 32.8288 11.6875 32.8613 11.6875 32.78C11.6713 32.715 11.6875 32.65 11.72 32.6013L16.7738 24.3137L11.85 15.9775C11.8013 15.9125 11.785 15.8475 11.8175 15.815C11.85 15.7663 11.915 15.75 11.98 15.75H15.6688C15.75 15.75 15.8313 15.7663 15.8963 15.7825C15.9613 15.815 16.01 15.8637 16.0588 15.9287C16.3675 16.6275 16.725 17.3263 17.0988 18.025C17.4888 18.7238 17.8625 19.4062 18.2688 20.0887C18.6588 20.7712 19.0163 21.4538 19.3575 22.1525H19.39C19.7313 21.4375 20.0888 20.7388 20.4463 20.0563C20.8038 19.3738 21.1775 18.6913 21.5513 18.0088C21.925 17.3263 22.2825 16.6275 22.64 15.9612C22.6563 15.8962 22.6888 15.8312 22.7375 15.7987C22.8025 15.7662 22.8675 15.75 22.9488 15.7662H26.3775C26.4588 15.75 26.54 15.7987 26.5563 15.88C26.5725 15.8962 26.54 15.9613 26.5075 15.9938Z" fill="#FF61F6"/>
<path d="M34.015 33.1378C32.8125 33.154 31.61 32.9103 30.5212 32.4065C29.4975 31.9353 28.6525 31.1553 28.0675 30.1965C27.4662 29.2053 27.1737 27.9703 27.1737 26.4915C27.1575 25.289 27.4662 24.1028 28.0675 23.0628C28.685 22.0065 29.5787 21.129 30.6512 20.544C31.7887 19.9103 33.1537 19.6015 34.7625 19.6015C34.8437 19.6015 34.9575 19.6015 35.1037 19.6178C35.25 19.634 35.4125 19.634 35.6075 19.6503V14.5153C35.6075 14.4015 35.6562 14.3365 35.77 14.3365H39.0687C39.15 14.3203 39.215 14.3853 39.2312 14.4503C39.2312 14.4665 39.2312 14.4828 39.2312 14.4828V29.9528C39.2312 30.2453 39.2475 30.5703 39.2637 30.9278C39.2962 31.269 39.3125 31.594 39.3287 31.8703C39.3287 31.984 39.28 32.0815 39.1662 32.1303C38.3212 32.4878 37.4275 32.7478 36.5175 32.9103C35.6887 33.0565 34.86 33.1378 34.015 33.1378ZM35.6075 29.8878V22.7378C35.4612 22.7053 35.315 22.6728 35.1687 22.6565C34.99 22.6403 34.8112 22.624 34.6325 22.624C33.9987 22.624 33.365 22.754 32.7962 23.0465C32.2437 23.3228 31.7725 23.729 31.415 24.249C31.0575 24.769 30.8787 25.4678 30.8787 26.3128C30.8625 26.8815 30.96 27.4503 31.155 27.9865C31.3175 28.4253 31.5612 28.8153 31.8862 29.1403C32.195 29.4328 32.5687 29.6603 32.9912 29.7903C33.43 29.9365 33.885 30.0015 34.34 30.0015C34.5837 30.0015 34.8112 29.9853 35.0225 29.969C35.2337 29.9853 35.4125 29.9528 35.6075 29.8878Z" fill="#FF61F6"/>
</g>
<defs>
<clipPath id="clip0_403_107">
<rect width="39" height="38.025" fill="white" transform="translate(6 6)"/>
</clipPath>
</defs>
</svg>
