<svg width="57" height="80" viewBox="0 0 57 80" fill="none" xmlns="http://www.w3.org/2000/svg">
<g clip-path="url(#clip0_61_2124)">
<path d="M5.148 73.4706L0 15.5986H56.624L51.476 73.4706L28.234 79.8706L5.148 73.4706Z" fill="#E44D26"/>
<path d="M28.3906 75.0355L46.9536 69.7355L51.4766 20.4355H28.3906V75.0355Z" fill="#F16529"/>
<path d="M28.3902 41.8051H19.0302L18.2502 34.6291H28.3902V27.4541H10.4512L10.7632 29.3261L12.4792 48.9811H28.3902V41.8051Z" fill="#EBEBEB"/>
<path d="M28.391 60.3671H28.235L20.435 58.1831L19.967 52.4121H12.791L13.727 63.6431L28.234 67.6991H28.391V60.3671Z" fill="#EBEBEB"/>
<path d="M5.30273 0H8.89073V3.588H12.1667V0H15.7547V10.763H12.1667V7.176H8.89073V10.764H5.30273V0Z" fill="black"/>
<path d="M20.5907 3.588H17.4707V0H27.2977V3.588H24.1777V10.764H20.5907V3.588Z" fill="black"/>
<path d="M28.8574 0H32.6014L34.9414 3.744L37.2804 0H41.0244V10.763H37.4364V5.46L35.0974 9.2H34.9414L32.4414 5.456V10.756H29.0134L28.8574 0Z" fill="black"/>
<path d="M42.7402 0H46.3282V7.176H51.4762V10.764H42.7402V0Z" fill="black"/>
<path d="M28.2344 41.8057V48.9817H36.9694L36.1894 58.1817L28.2344 60.3687V67.6997L42.7414 63.6437L42.8974 62.5517L44.6134 43.8327L44.7694 41.8047L28.2344 41.8057Z" fill="white"/>
<path d="M28.2344 27.4541V34.6301H45.3934L45.5494 33.0701L45.8614 29.3261L46.0174 27.4541H28.2344Z" fill="white"/>
</g>
<defs>
<clipPath id="clip0_61_2124">
<rect width="56.624" height="79.867" fill="white"/>
</clipPath>
</defs>
</svg>
