<svg xmlns="http://www.w3.org/2000/svg" width="150" height="150" viewBox="0 0 150 150" fill="none"><g clip-path="url(#clip0_2415_2595)"><path d="M7.00126 85.6786C7.38339 85.0289 7.95545 84.5137 8.63939 84.2032C9.32333 83.8927 10.0858 83.802 10.8229 83.9435C14.3051 84.3243 17.8214 84.304 21.2999 83.8801C22.443 83.7278 23.6 83.7202 24.7443 83.8547L30.0989 84.2989C30.6504 84.3375 31.1984 84.4151 31.7391 84.5312C31.9745 84.5653 32.1938 84.6714 32.3674 84.8351C32.5409 84.9988 32.6603 85.2121 32.7093 85.4463C32.7651 85.7028 32.7313 85.9709 32.6136 86.2053C32.496 86.4397 32.3016 86.6262 32.0633 86.7333C31.5898 87.007 31.0572 87.1608 30.5114 87.1813L24.7582 86.9072C23.0977 86.8574 21.4358 86.9049 19.7808 87.0493C17.4909 87.2778 15.1833 87.293 12.8921 87.0925C11.6215 86.9808 10.3346 87.0519 9.05654 87.029C8.67091 87.0818 8.27827 87.0322 7.91754 86.8853C7.55681 86.7384 7.24051 86.4991 7 86.1913L7.00126 85.6786ZM32.6588 62.8147L32.8481 67.196C32.8795 68.1404 32.85 69.0859 32.7598 70.0264C32.4822 71.9872 32.4822 73.9777 32.7598 75.9385C32.8796 76.7889 32.8531 77.652 32.6841 78.4935C32.6646 78.7884 32.5862 79.0763 32.4535 79.34C32.3208 79.6037 32.1365 79.8378 31.9117 80.0281C31.6869 80.2185 31.4263 80.3612 31.1453 80.4477C30.8644 80.5343 30.569 80.5629 30.2768 80.5318C28.8713 80.4557 27.4758 80.2501 26.1082 79.9201C25.1117 79.6108 24.2619 78.9459 23.7186 78.0505C23.1555 77.2406 22.6374 76.3999 22.1667 75.5323C21.3567 74.0143 20.3587 72.6055 19.1979 71.3388C18.5166 70.5138 17.9022 69.638 17.3534 68.7217C17.2341 68.4935 17.0988 68.2742 16.9484 68.0655C16.8505 67.9356 16.7185 67.8358 16.5674 67.7773C16.4162 67.7188 16.2518 67.7038 16.0926 67.7342C15.9335 67.7645 15.7859 67.8389 15.6665 67.949C15.5471 68.0591 15.4606 68.2005 15.4167 68.3574C15.307 68.6857 15.2528 69.0302 15.2564 69.3766L15.1303 75.3039C15.1162 75.6474 15.0415 75.9856 14.9095 76.3028C14.7079 76.6812 14.5976 77.102 14.5873 77.5313C14.577 77.9605 14.667 78.3862 14.8502 78.774C14.9205 78.9122 14.9575 79.0651 14.9582 79.2203C14.9589 79.3756 14.9233 79.5288 14.8543 79.6677C14.7853 79.8065 14.6848 79.9271 14.5609 80.0197C14.437 80.1123 14.2932 80.1742 14.1411 80.2006C13.4203 80.4787 12.6519 80.6107 11.8802 80.5889C11.1085 80.5672 10.3487 80.392 9.64449 80.0737C8.86981 79.7563 8.37019 78.9948 8.3828 78.1533L8.2314 73.8963C8.1393 73.0129 8.47364 72.1372 9.13098 71.5432C9.4136 71.2804 9.65458 70.9758 9.84636 70.6395C10.2816 70.0048 10.2539 69.1798 9.77949 68.5884C8.497 66.889 7.93666 64.7475 8.22131 62.6332L8.31593 58.3863L8.32603 57.3544C8.28799 57.1378 8.30599 56.915 8.3783 56.7075C8.4506 56.4999 8.57478 56.3145 8.73889 56.1692C8.903 56.0239 9.10152 55.9235 9.31536 55.8776C9.5292 55.8318 9.75116 55.8421 9.95991 55.9075C11.0296 55.9036 12.0898 55.7045 13.0889 55.3198C13.3333 55.2067 13.5989 55.1473 13.868 55.1456C14.1371 55.1438 14.4034 55.1999 14.6493 55.3099C14.8951 55.4199 15.1148 55.5814 15.2937 55.7836C15.4726 55.9858 15.6066 56.2241 15.6867 56.4825C15.8482 56.8328 15.9718 57.1996 16.1157 57.5588C16.2168 57.8669 16.3857 58.1481 16.6098 58.3815C16.8339 58.6149 17.1075 58.7944 17.4101 58.9067C18.0519 59.1619 18.5894 59.6274 18.9355 60.228L22.9578 66.0588C23.3693 66.6626 23.8448 67.2197 24.3759 67.7202C24.95 68.2444 25.4256 68.0807 25.519 67.2862C25.698 66.054 25.7551 64.807 25.6893 63.5635C25.5772 61.6343 25.5988 59.6995 25.7536 57.7733C25.63 57.1133 25.8546 56.438 26.3466 55.9862C26.5887 55.7639 26.8835 55.6078 27.2026 55.5327C27.5218 55.4576 27.8548 55.466 28.1698 55.5572L29.5879 55.6384C30.2597 55.6001 30.922 55.8119 31.4484 56.2335C31.9749 56.6552 32.3285 57.2571 32.4418 57.9243C32.5879 58.4634 32.6733 59.0173 32.6967 59.5756L32.7093 62.8032L32.6588 62.8147ZM63.2975 69.7865C63.2042 68.4158 63.3278 67.0399 63.6634 65.7098C63.9807 64.6742 64.6014 63.7591 65.4442 63.0842C66.287 62.4093 67.3128 62.0062 68.3871 61.9275C70.3898 61.5473 72.4606 61.9804 74.1467 63.132C74.3234 63.2563 74.505 63.368 74.6943 63.4683C74.8212 63.5704 74.9678 63.645 75.1248 63.6871C75.2818 63.7293 75.4458 63.7382 75.6064 63.7132C75.767 63.6883 75.9207 63.6301 76.0578 63.5422C76.1948 63.4544 76.3123 63.3389 76.4026 63.203C77.1237 62.6418 77.9893 62.2996 78.8973 62.2168C79.8053 62.1341 80.7179 62.3142 81.5276 62.736C82.6126 63.5229 83.0113 64.9622 82.4902 66.201C81.739 68.0396 81.5879 70.0707 82.0587 72.0013L82.4625 75.9766L82.7993 80.3326C82.8437 81.8046 82.3621 83.2438 81.4418 84.389C80.6052 85.4737 79.5578 86.3754 78.3633 87.0392C77.7324 87.5113 76.8997 87.6129 76.1743 87.3083C74.6226 86.655 72.88 86.63 71.3105 87.2385C70.0109 87.7043 68.6029 87.7868 67.2579 87.4771C66.3715 87.3059 65.5396 86.9207 64.8337 86.3548C64.1278 85.7888 63.5691 85.0589 63.2054 84.2278C62.976 83.912 62.86 83.527 62.8765 83.1362C62.893 82.7453 63.041 82.3717 63.2963 82.0765C63.8665 81.513 64.7346 81.3911 65.4386 81.7719L66.0278 82.0232L66.6019 82.31C68.3935 82.9764 70.2633 83.3889 72.0738 83.9816C72.4936 84.087 72.931 84.1011 73.3567 84.0229C73.7824 83.9446 74.1866 83.7759 74.5423 83.5279C74.8979 83.2799 75.1969 82.9584 75.4191 82.5849C75.6414 82.2114 75.7818 81.7944 75.8311 81.3619C75.9691 80.5627 75.9937 79.7477 75.9043 78.9415C75.914 78.7869 75.8829 78.6324 75.8139 78.4939C75.745 78.3553 75.6407 78.2376 75.5118 78.1529C75.3829 78.0681 75.2339 78.0192 75.0801 78.0113C74.9263 78.0033 74.7731 78.0366 74.6363 78.1076C73.9878 78.3145 73.3657 78.595 72.7816 78.9453C71.7092 79.599 70.4437 79.8338 69.2072 79.6434C67.422 79.3794 65.9294 78.1432 65.3288 76.4322C64.9933 75.4134 64.4588 74.4723 63.7568 73.664C63.4676 73.2455 63.3146 72.7471 63.319 72.2374C63.2521 71.4226 63.3013 70.5874 63.3013 69.7827L63.2975 69.7865ZM76.1213 71.0888C76.0021 70.2901 75.8293 69.5006 75.604 68.7255C75.3869 68.0225 74.9537 67.4069 74.3667 66.9674C73.7797 66.5279 73.0692 66.2871 72.3375 66.2797C71.6154 66.3742 70.9387 66.6863 70.3963 67.1749C69.8538 67.6636 69.471 68.3058 69.2981 69.0174C69.2474 69.1353 69.2147 69.2603 69.2009 69.388C69.1862 70.4533 69.2308 71.5186 69.3347 72.5788C69.4356 73.7795 70.3024 74.7721 71.4732 75.0247C72.0926 75.2049 72.7495 75.2092 73.3712 75.0372C73.9929 74.8652 74.5552 74.5235 74.9958 74.0499C75.7006 73.223 76.0996 72.1764 76.125 71.0875L76.1213 71.0888ZM38.0563 75.5844V74.5525C37.9705 73.5447 38.3566 72.5535 39.101 71.8871C39.8454 71.2208 40.8636 70.9162 41.8514 71.1002C42.0648 71.1152 42.2769 71.1454 42.4861 71.1903C42.9241 71.2996 43.381 71.3077 43.8226 71.2141C44.2642 71.1204 44.679 70.9275 45.0359 70.6496C46.0762 69.8824 47.3235 69.4509 48.6128 69.4121C49.2058 69.374 49.795 69.2852 50.3665 69.11C50.6384 69.0438 50.8944 68.9242 51.1201 68.758C51.3457 68.5918 51.5364 68.3823 51.6812 68.1416C51.8261 67.901 51.9219 67.6337 51.9631 67.3555C52.0042 67.0772 51.9899 66.7935 51.9209 66.5208C51.9131 66.3364 51.8675 66.1556 51.7872 65.9897C51.7069 65.8237 51.5935 65.6762 51.4541 65.5562C51.1728 65.315 50.8043 65.197 50.4359 65.2363C48.2792 65.1208 46.162 65.8516 44.53 67.2747C44.3003 67.5243 43.9852 67.6771 43.6481 67.7025C42.4142 67.7088 41.184 67.5857 39.9892 67.3344C39.6388 67.2922 39.3113 67.1375 39.0553 66.8932C38.7993 66.6489 38.6284 66.328 38.5681 65.9783C38.5077 65.6285 38.5611 65.2685 38.7203 64.9517C38.8795 64.6349 39.136 64.3782 39.4517 64.2197C40.402 63.413 41.5058 62.8096 42.6956 62.4465C43.8855 62.0834 45.1364 61.9681 46.3721 62.1077C47.7269 62.314 49.1065 62.2904 50.4536 62.0379C53.7315 61.6508 56.7658 63.8275 57.4686 67.0717C57.5322 67.6671 57.4733 68.2694 57.2957 68.841C56.8963 70.0762 56.9683 71.4168 57.4976 72.6017C57.7043 73.2056 57.7358 73.8563 57.5884 74.4776C57.3858 75.4874 57.3935 76.5285 57.6111 77.5352C57.8508 78.1317 57.7499 78.8146 57.3537 79.3197C56.9576 79.8249 56.3192 80.0775 55.6883 79.9823C55.007 79.995 54.3207 79.9696 53.6393 80.0127C52.8697 80.1371 52.085 79.882 51.5323 79.3273C51.3343 79.0925 51.0491 78.9491 50.7438 78.9301C50.5924 78.9209 50.4407 78.9424 50.2977 78.9932C50.1547 79.044 50.0232 79.1231 49.9111 79.2258C49.6932 79.4325 49.4367 79.5939 49.1566 79.7005L42.9958 80.7793C42.0988 80.8039 41.2081 80.622 40.3917 80.2475C39.6685 80.0181 39.0439 79.5491 38.6196 78.9169C38.1953 78.2847 37.9963 77.5266 38.055 76.766L38.0626 75.5983L38.0563 75.5844ZM46.7581 77.2293C46.9712 77.243 47.1851 77.2246 47.3928 77.1747L51.96 75.2201C52.114 75.1366 52.2445 75.0151 52.3391 74.8671C52.4338 74.7191 52.4895 74.5494 52.5013 74.3738C52.513 74.1982 52.4803 74.0224 52.4061 73.863C52.332 73.7036 52.2189 73.5657 52.0774 73.4622C51.3494 72.4088 50.0335 71.9455 48.8096 72.3072C48.3504 72.3961 47.8823 72.4342 47.4155 72.4138C46.8624 72.4254 46.311 72.4805 45.7664 72.5788C45.2198 72.7205 44.7502 73.0719 44.4581 73.5579C44.1661 74.0438 44.0751 74.6255 44.2045 75.1782C44.1793 76.2152 44.9653 77.091 45.9936 77.1684C46.2459 77.2115 46.5045 77.2128 46.7594 77.2293H46.7581ZM120.403 71.0355C120.313 72.8937 119.84 74.7127 119.012 76.3764C118.436 77.3918 117.604 78.2333 116.602 78.8222C116.288 79.0478 115.927 79.1967 115.546 79.2573C115.165 79.3179 114.775 79.2884 114.407 79.1712C114.004 79.018 113.564 78.9911 113.146 79.0942C112.727 79.1973 112.35 79.4255 112.063 79.7487C111.748 80.0676 111.353 80.2933 110.919 80.4012C110.486 80.5091 110.031 80.495 109.605 80.3605C108.473 80.1422 107.321 80.0368 106.169 80.047C105.312 80.0425 104.483 79.7373 103.825 79.1839L101.13 77.223C100.55 76.8371 100.197 76.1923 100.174 75.4943C100.111 74.1619 99.8168 72.8509 99.3047 71.6206C98.7823 69.9934 99.0978 68.2127 100.146 66.866C100.31 66.616 100.563 66.4345 100.849 66.3545C101.368 66.2122 101.85 65.9585 102.262 65.6108C102.674 65.263 103.006 64.8296 103.236 64.3403C103.782 62.9441 105.286 62.2181 106.706 62.6357C106.956 62.7003 107.216 62.7107 107.47 62.6662C109.322 62.4098 111.201 62.4199 113.049 62.6992C115.727 62.7118 118.153 64.2895 119.264 66.7404C119.946 68.0731 120.336 69.5378 120.403 71.0355ZM113.366 71.7335C113.501 70.3968 113.218 69.0509 112.556 67.884C112.32 67.4092 111.972 66.9996 111.542 66.6908C111.113 66.382 110.615 66.1833 110.092 66.112C109.569 66.0407 109.037 66.099 108.541 66.2817C108.045 66.4644 107.602 66.7661 107.248 67.1605C105.505 69.407 105.288 72.4913 106.699 74.9599C107.18 75.5407 107.815 75.9707 108.531 76.1988C109.247 76.427 110.013 76.4437 110.738 76.2469C111.438 76.0327 112.057 75.6096 112.512 75.0336C112.967 74.4577 113.238 73.756 113.288 73.0218L113.367 71.731L113.366 71.7335ZM132.918 61.6888L137.233 62.194C138.1 62.4161 138.926 62.7783 139.677 63.2665C140.104 63.5508 140.446 63.9448 140.67 64.4075C140.799 64.5827 140.878 64.7893 140.9 65.0058C140.922 65.2223 140.887 65.4408 140.796 65.6387C140.613 66.041 140.229 66.3139 139.787 66.3495C138.141 67.0425 136.267 66.9054 134.736 65.9788C134.177 65.6648 133.569 65.4469 132.937 65.3341C132.56 65.2458 132.167 65.2445 131.789 65.3302C131.411 65.4159 131.057 65.5864 130.753 65.8291C130.366 66.0448 130.125 66.4561 130.123 66.9016C130.121 67.1205 130.177 67.3358 130.285 67.5259C130.393 67.716 130.549 67.8741 130.737 67.9842C130.895 68.1299 131.084 68.2391 131.288 68.3041C132.776 68.8394 134.327 69.1732 135.902 69.2966C136.848 69.2454 137.784 69.5076 138.567 70.0429C139.224 70.44 139.9 70.8034 140.593 71.1319C141.772 71.6472 142.507 72.8454 142.438 74.1349C142.337 77.0415 141.222 78.9034 138.373 79.3946C137.306 79.4815 136.268 79.7836 135.321 80.2831C135.01 80.4276 134.672 80.5026 134.33 80.5027L131.522 80.7438C129.35 80.6097 127.232 80.0127 125.308 78.9923C125.099 78.8428 124.905 78.6727 124.73 78.4846C124.459 78.2968 124.252 78.0288 124.138 77.7177C124.025 77.4066 124.01 77.0676 124.097 76.7478C124.183 76.4279 124.366 76.143 124.62 75.9323C124.874 75.7216 125.188 75.5956 125.516 75.5717C126.682 75.3115 127.879 75.2227 129.07 75.309C129.686 75.4765 130.24 75.8167 130.669 76.2913C131.128 76.715 131.676 77.0294 132.273 77.2115C132.869 77.3937 133.498 77.4388 134.114 77.3435C134.666 77.2794 135.2 77.1078 135.687 76.8384C136.191 76.5845 136.517 76.0426 136.481 75.4651C136.446 74.8876 136.065 74.39 135.523 74.2035C135.293 74.0918 135.037 74.0423 134.801 73.942C134.005 73.6419 133.227 73.2944 132.472 72.9012C131.445 72.2684 130.24 71.9953 129.043 72.1245C126.973 72.4862 124.95 71.2741 124.28 69.2687C123.566 67.2608 124.227 65.0193 125.914 63.7272C127.367 62.4961 129.214 61.831 131.115 61.8577C131.721 61.8729 132.329 61.8132 132.92 61.68L132.918 61.6888ZM94.2315 69.454C94.1898 70.0023 94.1999 70.5544 94.2643 71.1015L94.7563 77.77C94.799 78.1495 94.7537 78.5339 94.6241 78.8929C94.4945 79.2519 94.284 79.5758 94.0092 79.8394C93.7344 80.1029 93.4027 80.2989 93.04 80.412C92.6774 80.5251 92.2936 80.5522 91.9188 80.4912C90.5057 80.5255 89.1809 79.797 88.4454 78.581C88.0836 77.9839 87.8849 77.3013 87.8694 76.6022C87.8539 75.9031 88.0221 75.2122 88.3571 74.5995C88.8694 73.411 88.9798 72.0862 88.6712 70.8286L87.8764 65.3633C87.8297 64.8937 87.8688 64.4177 87.9924 63.9608C88.1438 62.9784 88.9967 62.2625 89.9859 62.2892C90.7962 62.2361 91.6095 62.2518 92.4171 62.3362C93.0265 62.3425 93.6069 62.6052 94.0157 63.0596C94.218 63.2847 94.3721 63.5492 94.4682 63.8368C94.5644 64.1244 94.6006 64.4289 94.5746 64.7312V66.2797C94.6314 66.2974 94.3601 68.4043 94.234 69.4553L94.2315 69.454ZM91.3927 55.0508H91.7762C92.6758 54.9492 93.5476 55.4036 93.9816 56.202C94.1937 56.5927 94.2856 57.038 94.2456 57.4814C94.2056 57.9248 94.0356 58.3462 93.7571 58.6922C93.6372 58.9223 93.4569 59.1149 93.2358 59.2492C93.0146 59.3835 92.7612 59.4542 92.5029 59.4537C91.6531 59.4851 90.8021 59.4482 89.9581 59.3433C89.7086 59.3376 89.4631 59.278 89.2385 59.1685C89.0138 59.059 88.8152 58.9022 88.6561 58.7087C88.3293 58.3127 88.1792 57.8202 88.2435 57.3189C88.2397 56.1537 89.0964 55.1675 90.2433 55.0152C90.6243 54.981 91.0091 55.0152 91.3914 55.0152V55.0495L91.3927 55.0508Z" fill="black"></path></g><defs><clipPath id="clip0_2415_2595"><rect width="135" height="33" fill="white" transform="translate(7 55)"></rect></clipPath></defs></svg>