<svg width="243" height="72" viewBox="0 0 243 72" fill="none" xmlns="http://www.w3.org/2000/svg">
<path d="M38.4526 1.09631C41.4942 1.34463 44.7616 2.01866 47.4844 2.9883C49.3439 3.6505 51.4159 4.59649 51.5222 4.82117C51.6284 5.06949 51.6019 5.08132 50.6057 6.18104C50.1674 6.66586 48.64 8.45143 47.2188 10.1306C44.0311 13.9027 44.0709 13.8673 43.7522 13.8673C43.6061 13.8673 43.1412 13.7135 42.7029 13.5125C41.6669 13.0513 40.0465 12.6375 38.2534 12.3891C36.4736 12.1408 32.0905 12.1999 30.4834 12.4956C25.7948 13.3706 21.2523 15.8066 18.1443 19.1294C13.4557 24.1431 11.6493 30.2093 12.8846 36.7485C13.1502 38.1557 13.6549 39.7639 14.1331 40.7809C14.7574 42.0934 15.1957 42.9566 15.2621 42.9566C15.3949 42.9566 19.2334 38.0256 23.0719 32.9646C25.5158 29.7245 28.2387 26.2716 30.7623 23.209C31.3733 22.464 32.0639 21.6008 32.2764 21.2815C32.7944 20.5602 33.0601 20.4774 33.5382 20.9149C33.7375 21.1041 34.9063 22.7714 36.1282 24.628C39.223 29.2988 41.9192 33.1656 42.0521 33.1183C42.1052 33.0946 42.7693 32.3142 43.5131 31.3682C51.4823 21.2579 50.6057 20.844 55.4935 14.4585C57.8577 11.3722 59.7704 8.99538 59.7969 9.1018C59.8102 9.14911 59.8368 13.477 59.8766 18.7155L59.943 28.2346L59.0133 29.4525C57.7116 31.1908 55.799 35.0812 53.1692 38.3094C51.9472 39.823 50.2205 42.0343 49.3306 43.2168C46.1828 47.4147 43.8053 50.3118 43.3404 50.5364C43.0084 50.6902 42.6365 50.4773 41.9724 49.7678C41.5208 49.2712 37.2174 43.5361 34.3617 39.622C33.6843 38.6878 32.9273 37.7182 32.6749 37.458L32.21 36.985L31.8647 37.3398C31.6655 37.529 30.6427 38.5932 29.5669 39.7048C27.455 41.8924 22.8461 46.5278 21.1062 48.2187C20.5085 48.7982 19.3264 50.0161 18.4896 50.9148C16.8161 52.6886 12.765 56.6736 12.4596 56.8273C12.1673 56.981 11.7025 56.6618 9.75001 54.8998C7.09359 52.523 5.31379 50.3118 3.71994 47.4501C1.84717 44.1037 0.718187 40.7454 0.173621 36.9259C-0.105303 34.9157 -0.0388911 30.3749 0.306443 28.3528C1.94014 18.9165 7.45221 11.0411 16.0059 5.93272C17.8122 4.84482 21.1062 3.33122 23.1516 2.64537C25.1041 1.98318 28.6637 1.3328 31.5061 1.10813C33.2593 0.966232 36.7259 0.966232 38.4526 1.09631ZM63.9542 46.3859C64.0605 46.5751 63.9941 46.8352 63.6089 47.6512C62.294 50.4891 60.3946 53.2798 58.2695 55.4911C54.0325 59.9018 47.4579 63.3074 41.0426 64.4071C37.8283 64.9629 37.2705 65.0102 34.1359 64.9984C30.0318 64.9984 27.1761 64.5963 23.7759 63.5675C22.0625 63.0472 18.7818 61.5928 17.3341 60.7177C15.9527 59.8782 15.8863 59.7126 16.6833 58.8612C17.1481 58.3646 21.7172 53.2917 22.8993 51.9436L23.2579 51.5416L25.3166 52.2629C29.4075 53.7055 31.0014 54.0012 34.9993 54.0012C38.519 54.0012 40.259 53.7055 42.9951 52.6531C46.3687 51.3405 49.158 49.4604 51.23 47.0954L52.0402 46.1494H57.9241C63.662 46.1494 63.8214 46.1612 63.9542 46.3859Z" fill="url(#paint0_linear_5_2264)"/>
<path d="M93.6113 30.4888C85.2197 30.4888 78.9871 24.0118 78.9871 15.8239V15.7424C78.9871 7.63596 85.0975 0.995995 93.8557 0.995995C98.133 0.995995 100.985 2.1366 103.388 3.88825C104.04 4.37708 104.61 5.27327 104.61 6.37314C104.61 8.12479 103.266 9.42834 101.514 9.42834C100.659 9.42834 100.088 9.10245 99.6402 8.8173C97.8886 7.51375 96.0962 6.7805 93.815 6.7805C89.0082 6.7805 85.5456 10.7726 85.5456 15.6609V15.7424C85.5456 20.6307 88.9267 24.7043 93.815 24.7043C96.4628 24.7043 98.2145 23.8896 100.007 22.4638C100.536 22.0158 101.188 21.7713 101.881 21.7713C103.469 21.7713 104.814 23.0749 104.814 24.6636C104.814 25.6413 104.366 26.4152 103.755 26.9041C101.188 29.1445 98.1738 30.4888 93.6113 30.4888ZM117.952 30.4888C111.23 30.4888 106.179 25.519 106.179 19.205V19.1235C106.179 12.8502 111.23 7.75816 118.033 7.75816C124.755 7.75816 129.806 12.728 129.806 19.042V19.1235C129.806 25.3968 124.755 30.4888 117.952 30.4888ZM118.033 25.1524C121.577 25.1524 123.695 22.4638 123.695 19.205V19.1235C123.695 15.9054 121.374 13.0946 117.952 13.0946C114.408 13.0946 112.289 15.7831 112.289 19.042V19.1235C112.289 22.3416 114.611 25.1524 118.033 25.1524ZM154.209 3.11426V27.1485C154.209 28.9001 152.865 30.2444 151.113 30.2444C149.362 30.2444 148.017 28.9001 148.017 27.1485V26.8633C146.51 28.9409 144.473 30.4074 141.214 30.4074C136.122 30.4074 131.275 26.4152 131.275 19.1235V19.042C131.275 11.7503 136.041 7.75816 141.214 7.75816C144.514 7.75816 146.551 9.2654 148.017 11.017V3.11426C148.017 1.36262 149.362 0.0183295 151.113 0.0183295C152.865 0.0183295 154.209 1.36262 154.209 3.11426ZM142.803 13.0131C139.911 13.0131 137.467 15.3758 137.467 19.042V19.1235C137.467 22.749 139.911 25.1524 142.803 25.1524C145.695 25.1524 148.099 22.749 148.099 19.1235V19.042C148.099 15.4165 145.695 13.0131 142.803 13.0131ZM162.715 17.3719H172.044C171.677 14.6018 170.048 12.728 167.44 12.728C164.833 12.728 163.204 14.5611 162.715 17.3719ZM175.628 27.841C173.714 29.4704 171.27 30.4888 168.052 30.4888C161.493 30.4888 156.645 25.8857 156.645 19.205V19.1235C156.645 12.8909 161.086 7.75816 167.44 7.75816C174.773 7.75816 177.95 13.7056 177.95 18.268C177.95 20.0604 176.688 21.2418 175.058 21.2418H162.797C163.408 24.0525 165.363 25.519 168.133 25.519C169.885 25.519 171.27 24.9895 172.532 24.0525C172.981 23.7267 173.388 23.5637 174.04 23.5637C175.465 23.5637 176.443 24.5821 176.443 26.0079C176.443 26.8226 176.077 27.3929 175.628 27.841ZM80.2499 62.1485V39.4586C80.2499 37.7069 81.635 36.3219 83.3866 36.3219H84.0384C85.5456 36.3219 86.4418 37.0551 87.2973 38.155L99.3958 54.042V39.3363C99.3958 37.5847 100.74 36.2404 102.492 36.2404C104.243 36.2404 105.588 37.5847 105.588 39.3363V62.0263C105.588 63.7779 104.203 65.1629 102.451 65.1629H102.247C100.74 65.1629 99.8439 64.4297 98.9885 63.3298L86.4418 46.8725V62.1485C86.4418 63.9001 85.0975 65.2444 83.3459 65.2444C81.5942 65.2444 80.2499 63.9001 80.2499 62.1485ZM114.755 52.3719H124.083C123.717 49.6018 122.087 47.728 119.48 47.728C116.873 47.728 115.244 49.5611 114.755 52.3719ZM127.668 62.841C125.754 64.4704 123.309 65.4888 120.091 65.4888C113.533 65.4888 108.685 60.8857 108.685 54.205V54.1235C108.685 47.8909 113.125 42.7582 119.48 42.7582C126.813 42.7582 129.99 48.7056 129.99 53.268C129.99 55.0604 128.727 56.2418 127.098 56.2418H114.836C115.447 59.0525 117.403 60.519 120.173 60.519C121.924 60.519 123.309 59.9895 124.572 59.0525C125.02 58.7267 125.428 58.5637 126.079 58.5637C127.505 58.5637 128.483 59.5821 128.483 61.0079C128.483 61.8226 128.116 62.3929 127.668 62.841ZM132.69 68.6662V46.017C132.69 44.2654 134.034 42.9211 135.786 42.9211C137.538 42.9211 138.882 44.2654 138.882 46.017V46.3022C140.389 44.2247 142.426 42.7582 145.685 42.7582C150.777 42.7582 155.625 46.7503 155.625 54.042V54.1235C155.625 61.4152 150.858 65.4074 145.685 65.4074C142.385 65.4074 140.349 63.9001 138.882 62.1485V68.6662C138.882 70.4179 137.538 71.7622 135.786 71.7622C134.034 71.7622 132.69 70.4179 132.69 68.6662ZM144.096 60.1524C146.988 60.1524 149.433 57.7897 149.433 54.1235V54.042C149.433 50.4165 146.988 48.0131 144.096 48.0131C141.204 48.0131 138.801 50.4165 138.801 54.042V54.1235C138.801 57.749 141.204 60.1524 144.096 60.1524ZM165.515 65.3666C161.768 65.3666 159.161 63.8594 159.161 58.8081V48.4612H158.957C157.49 48.4612 156.309 47.2799 156.309 45.8134C156.309 44.3469 157.49 43.1655 158.957 43.1655H159.161V40.4362C159.161 38.6846 160.505 37.3403 162.257 37.3403C164.008 37.3403 165.352 38.6846 165.352 40.4362V43.1655H168.082C169.548 43.1655 170.73 44.3469 170.73 45.8134C170.73 47.2799 169.548 48.4612 168.082 48.4612H165.352V57.7897C165.352 59.2155 166.004 59.908 167.349 59.908C167.552 59.908 167.96 59.8673 168.082 59.8673C169.508 59.8673 170.648 61.0079 170.648 62.4336C170.648 63.5335 169.915 64.4297 169.059 64.7556C167.919 65.2037 166.86 65.3666 165.515 65.3666ZM192.851 46.017V62.1485C192.851 63.9001 191.507 65.2444 189.755 65.2444C188.003 65.2444 186.659 63.9001 186.659 62.1485V61.9041C185.233 63.7372 183.359 65.4074 180.263 65.4074C175.538 65.4074 172.849 62.3522 172.849 57.3009V46.017C172.849 44.2654 174.194 42.9211 175.945 42.9211C177.697 42.9211 179.041 44.2654 179.041 46.017V55.3456C179.041 58.2786 180.386 59.7858 182.789 59.7858C185.192 59.7858 186.659 58.2786 186.659 55.3456V46.017C186.659 44.2654 188.003 42.9211 189.755 42.9211C191.507 42.9211 192.851 44.2654 192.851 46.017ZM196.356 62.1485V46.017C196.356 44.2654 197.7 42.9211 199.452 42.9211C201.204 42.9211 202.548 44.2654 202.548 46.017V46.2615C203.974 44.4283 205.847 42.7582 208.943 42.7582C213.669 42.7582 216.357 45.8134 216.357 50.8646V62.1485C216.357 63.9001 215.013 65.2444 213.261 65.2444C211.51 65.2444 210.166 63.9001 210.166 62.1485V52.8199C210.166 49.887 208.821 48.3797 206.418 48.3797C204.014 48.3797 202.548 49.887 202.548 52.8199V62.1485C202.548 63.9001 201.204 65.2444 199.452 65.2444C197.7 65.2444 196.356 63.9001 196.356 62.1485ZM224.71 52.3719H234.039C233.672 49.6018 232.043 47.728 229.436 47.728C226.828 47.728 225.199 49.5611 224.71 52.3719ZM237.623 62.841C235.709 64.4704 233.265 65.4888 230.047 65.4888C223.488 65.4888 218.64 60.8857 218.64 54.205V54.1235C218.64 47.8909 223.081 42.7582 229.436 42.7582C236.768 42.7582 239.945 48.7056 239.945 53.268C239.945 55.0604 238.683 56.2418 237.053 56.2418H224.792C225.403 59.0525 227.358 60.519 230.128 60.519C231.88 60.519 233.265 59.9895 234.528 59.0525C234.976 58.7267 235.383 58.5637 236.035 58.5637C237.461 58.5637 238.438 59.5821 238.438 61.0079C238.438 61.8226 238.072 62.3929 237.623 62.841Z" fill="#170F49"/>
<defs>
<linearGradient id="paint0_linear_5_2264" x1="59.883" y1="9.23391" x2="13.848" y2="55.8304" gradientUnits="userSpaceOnUse">
<stop stop-color="#4A3AFF"/>
<stop offset="1" stop-color="#744EDF"/>
</linearGradient>
</defs>
</svg>
