<svg width="149" height="149" viewBox="0 0 149 149" fill="none" xmlns="http://www.w3.org/2000/svg">
<g clip-path="url(#clip0_2863_718)">
<path d="M148.87 77.3419C148.776 77.2642 148.639 77.2396 148.532 77.2754C148.402 77.3154 148.283 77.3501 148.171 77.383L148.116 77.399C147.839 77.4801 147.6 77.5495 147.362 77.6448C143.616 79.1334 140.666 81.6838 138.345 85.4413C137.771 86.3697 137.327 87.3348 136.974 88.2972C137.554 85.06 137.688 83.7988 137.791 80.1765C137.796 80.0245 137.796 79.8699 137.796 79.7164C137.796 79.2974 137.796 78.9015 137.887 78.5404C137.997 78.1124 138.218 77.6855 138.431 77.2724C138.491 77.1555 138.552 77.0386 138.601 76.9359C138.618 76.9158 138.674 76.8818 138.696 76.8784C139.767 76.7148 140.715 76.26 141.593 75.488C142.478 74.7063 143.206 73.7495 143.757 72.6433C145.734 68.6786 146.723 64.2963 146.698 59.6197C146.696 59.1686 146.643 58.7294 146.585 58.2517C146.558 58.0377 146.531 57.8188 146.509 57.5921C146.496 57.4678 146.42 57.3572 146.309 57.3035C146.199 57.2504 146.067 57.2542 145.957 57.321C145.89 57.3628 145.833 57.3968 145.781 57.4271C145.68 57.4868 145.604 57.5335 145.531 57.5858C143.845 58.7947 142.357 60.2998 141.109 62.0581C139.073 64.9319 137.889 68.1815 137.57 71.7563C137.538 71.3578 137.506 70.9593 137.474 70.5608L137.463 70.4163C137.338 68.8541 137.209 67.2385 137.103 65.6497C137.077 65.2475 136.999 64.8561 136.925 64.4774C136.781 63.7495 136.644 63.062 136.862 62.3415C136.912 62.1787 136.954 62.0148 136.996 61.8512C137.099 61.446 137.597 60.8219 138.361 60.1396L138.39 60.1138C138.672 59.8748 140.12 58.5497 140.942 55.9287C141.776 53.2659 141.713 50.4836 141.667 48.4519L141.665 48.3977C141.604 45.6049 141.302 43.5004 140.687 41.573C140.607 41.3265 140.513 41.0834 140.413 40.8279C140.361 40.695 140.308 40.5575 140.253 40.4137C140.209 40.292 140.101 40.2035 139.975 40.1826L139.914 40.177C139.804 40.177 139.703 40.2259 139.633 40.3103L139.036 41.0389C136.169 44.5353 134.76 48.636 134.849 53.2274C134.864 54.036 134.924 54.8655 135.032 55.7218C134.303 53.2073 133.448 50.7595 132.477 48.4048C132.457 48.3533 132.443 48.2894 132.442 48.2353L132.435 47.9133C132.425 47.4488 132.415 46.9681 132.434 46.4953C132.437 46.4169 132.488 46.2761 132.594 46.1375C132.744 45.9392 132.911 45.7454 133.083 45.5437C133.377 45.2016 133.681 44.8483 133.921 44.4449C134.696 43.1475 135.06 41.6148 135.066 39.6209C135.076 37.2736 134.714 34.8035 133.925 31.8467C133.494 30.2337 132.844 28.1382 131.632 26.2384C131.55 26.1106 131.458 25.9904 131.36 25.863C131.316 25.8066 131.27 25.7465 131.223 25.6819C131.154 25.5897 131.059 25.5359 130.906 25.5359C130.784 25.5448 130.675 25.6143 130.614 25.7222C129.093 28.4669 128.336 31.399 128.3 34.6862C128.27 37.4271 128.698 39.7856 129.234 41.6495C127.868 39.1544 126.351 36.7437 124.706 34.4569L124.668 34.405C124.63 34.3553 124.615 34.3311 124.617 34.3482C124.514 33.6084 124.442 33.0164 124.393 32.5011C124.394 32.4932 124.403 32.4499 124.48 32.3214C124.589 32.1362 124.708 31.9547 124.835 31.7627C125.089 31.3765 125.351 30.9769 125.519 30.5295C126.026 29.1791 126.14 27.6475 125.866 25.8488C125.265 21.868 123.51 18.2835 120.503 14.8898C120.193 14.5413 119.851 14.2332 119.489 13.9076L119.389 13.8168C119.247 13.6887 119.102 13.5576 118.955 13.4191C118.862 13.3302 118.728 13.297 118.599 13.335C118.476 13.3739 118.382 13.4755 118.352 13.6017L118.287 13.89C118.242 14.0812 118.207 14.2321 118.181 14.3837C117.777 16.8001 117.806 19.3882 118.272 22.2968C118.735 25.1815 119.656 27.6695 121.069 29.8308C118.95 27.333 116.888 25.2356 114.733 23.3769C114.723 23.3642 114.709 23.3257 114.708 23.316C114.876 21.8651 114.518 20.4982 113.613 19.1372C112.424 17.3487 110.773 15.9856 108.704 15.0862C107.466 14.5492 106.183 14.0738 104.927 13.6081C104.325 13.3847 103.723 13.1621 103.104 12.9235C102.481 12.6759 102.215 12.6318 102.07 12.7655C101.884 12.9388 101.929 13.0867 102.01 13.3556L102.036 13.4434C102.796 16.0009 103.803 18.0236 105.118 19.6269C107.53 22.5732 110.352 24.07 113.739 24.2022C113.858 24.2093 113.952 24.2422 113.99 24.2721C114.467 24.6291 114.818 24.9148 115.129 25.1979C116.11 26.095 117.077 27.0507 118.022 28.0572C116.616 27.1832 114.897 26.7889 112.961 26.8867C111.901 26.9401 110.849 27.0955 109.833 27.2456L109.794 27.2516C109.493 27.2957 109.194 27.3394 108.896 27.3816C108.242 27.4701 107.583 27.5858 107.001 27.6874C106.766 27.7296 106.203 27.8577 106.073 28.1307C106.028 28.2241 106.032 28.3264 106.083 28.4194C106.128 28.5005 106.177 28.5767 106.231 28.6461C107.91 30.8253 109.826 32.2605 112.088 33.0333C114.846 33.9804 117.378 33.9023 119.654 32.7883C120.002 32.5967 120.422 32.4996 120.902 32.4996C121.264 32.4996 121.535 32.5567 121.625 32.5772C121.76 32.5997 121.943 32.6751 121.98 32.7236C123.396 34.5846 124.739 36.5722 125.994 38.6603C124.934 37.6295 123.552 36.9345 121.669 36.4819C120.018 36.0886 118.331 36.0042 116.7 35.922L116.153 35.8944C115.641 35.8683 115.13 35.8358 114.603 35.8025L113.719 35.748C113.605 35.748 113.496 35.8033 113.43 35.8951C113.356 35.9941 113.339 36.1226 113.382 36.238C113.417 36.3343 113.482 36.5043 113.515 36.561C115.236 39.439 117.256 41.4296 119.691 42.6471C122.072 43.8362 124.223 44.1507 126.392 43.6319C126.643 43.5714 126.934 43.5393 127.235 43.5393C128.158 43.5393 128.801 43.8209 128.936 44.0816C130.13 46.5438 131.195 49.1025 132.114 51.7123C131.15 50.3838 129.803 49.3049 128.097 48.4978C126.402 47.6979 124.637 46.9666 122.901 46.2469C122.155 45.9384 121.406 45.6288 120.66 45.3121C120.549 45.2636 120.418 45.2737 120.314 45.342C120.213 45.4096 120.152 45.5224 120.152 45.6438C120.152 45.8768 122.628 52.749 126.224 55.457C127.691 56.5618 129.498 57.6982 131.777 57.7516C132.459 57.7654 133.164 57.8618 133.696 58.4672C133.778 58.5635 133.886 58.6386 134.003 58.6786C134.185 58.7383 134.235 58.8496 134.325 59.2291C135.063 62.3274 135.6 65.5209 135.931 68.7637C135.831 68.4347 135.715 68.1023 135.582 67.7658C134.777 65.7248 133.422 63.9389 131.319 62.1451C130.235 61.2167 129.099 60.3177 128.001 59.4479L127.949 59.4068C127.449 59.0106 126.95 58.6158 126.453 58.2162C126.35 58.1337 126.25 58.0485 126.134 57.9492L125.823 57.6833C125.715 57.5914 125.553 57.5724 125.426 57.6358C125.296 57.702 125.218 57.8386 125.228 57.9847C125.243 58.2039 125.255 58.4112 125.267 58.6102L125.273 58.7032C125.297 59.1129 125.321 59.4995 125.362 59.8811C125.751 63.5975 126.856 66.7003 128.741 69.3665C129.907 71.0146 131.58 73.0291 134.189 73.9818C134.824 74.2148 135.284 74.5678 135.778 75.2012C136.243 75.7942 136.33 76.3361 136.319 77.0181C136.275 79.8748 136.071 82.7086 135.712 85.4839C135.628 84.7115 135.451 83.9164 135.178 83.0903C134.613 81.3798 133.732 79.7168 132.485 78.0063C131.409 76.5251 130.289 75.0387 129.205 73.6005L129.133 73.5045C128.704 72.935 128.275 72.3647 127.857 71.8067C127.778 71.6921 127.665 71.651 127.6 71.6282C127.507 71.583 127.397 71.5785 127.299 71.6204C127.202 71.6614 127.128 71.7425 127.096 71.8418L127.083 71.8807C127.065 71.933 127.051 71.9793 127.043 72.0256C126.297 76.4796 126.755 80.4701 128.444 84.2264C129.269 86.0631 130.376 88.1426 132.327 89.6387C133.217 90.3218 133.921 91.2801 134.307 92.3366C134.388 92.5641 134.385 92.6627 134.376 92.7008C133.55 96.121 132.472 99.4198 131.161 102.542C131.498 100.897 131.475 99.1681 131.09 97.3773C130.542 94.8393 129.602 92.3796 128.763 90.2732L128.512 89.6424C128.119 88.6554 127.723 87.6604 127.314 86.6293C127.262 86.4975 127.137 86.4075 126.97 86.3992C126.838 86.3992 126.717 86.4743 126.655 86.5961L126.523 86.844C126.465 86.9527 126.411 87.0539 126.364 87.1585C124.677 90.9656 124.107 94.8684 124.672 98.7584C125.075 101.54 125.758 103.532 126.888 105.217C127.472 106.088 128.028 107.058 128.128 108.251C128.152 108.534 128.141 108.728 128.015 108.95C126.591 111.444 124.994 113.798 123.245 115.985C123.252 115.973 123.258 115.961 123.265 115.949C124.523 113.65 124.561 111.164 124.433 109.034C124.322 107.209 124.112 105.387 123.911 103.625L123.9 103.523C123.819 102.817 123.738 102.111 123.664 101.404C123.622 101.004 123.574 100.603 123.525 100.196L123.461 99.6458C123.447 99.524 123.372 99.4187 123.265 99.3657C123.067 99.2619 122.745 99.4221 122.398 99.8329C120.011 102.656 118.53 105.846 117.995 109.315C117.44 112.912 117.741 115.99 118.915 118.726C118.947 118.798 118.946 118.947 118.946 118.997L118.882 120.57C118.873 120.684 118.813 120.811 118.764 120.859C116.381 123.154 113.757 125.15 110.941 126.81C112.274 125.606 113.232 124.034 113.853 122.042C114.541 119.834 114.895 117.536 115.237 115.308L115.267 115.109C115.388 114.326 115.515 113.545 115.644 112.747L115.79 111.844C115.811 111.713 115.759 111.581 115.657 111.502C115.556 111.422 115.41 111.402 115.293 111.452L115.166 111.505C115.03 111.561 114.911 111.61 114.8 111.667C109.476 114.326 105.972 120.527 106.467 126.412C106.545 127.333 106.46 128.199 106.209 129.056C106.185 129.134 106.11 129.219 106.079 129.233C103.551 130.3 101.147 131.078 98.7278 131.612C98.6035 131.64 98.5049 131.729 98.4645 131.849C98.4238 131.97 98.4485 132.101 98.5314 132.2C98.7943 132.511 99.0233 132.846 99.2115 133.197C99.2888 133.34 99.4729 133.414 99.6107 133.378C101.582 132.928 103.501 132.346 105.317 131.646C105.464 131.587 105.576 131.559 105.681 131.576C106.085 131.63 106.512 131.713 106.986 131.831C107.083 131.854 107.164 131.9 107.166 131.896C108.201 133.959 109.98 135.274 112.607 135.914C113.178 136.051 113.768 136.152 114.359 136.214C114.977 136.279 115.667 136.313 116.408 136.313C117.435 136.313 118.168 136.249 118.177 136.248C120.453 135.994 122.398 135.481 124.12 134.682C124.826 134.354 125.631 133.913 126.25 133.125C126.369 132.974 126.349 132.757 126.205 132.63C124.456 131.087 122.675 129.965 120.759 129.202C117.921 128.074 115.336 127.768 112.802 128.256C112.423 128.329 112.054 128.422 111.694 128.528C114.065 127.111 116.334 125.446 118.478 123.549C118.519 123.512 118.586 123.479 118.639 123.469C118.99 123.411 119.455 123.339 119.932 123.305C119.976 123.305 120.032 123.326 120.038 123.329C121.33 124.774 122.994 125.476 125.125 125.476C125.234 125.476 125.343 125.474 125.451 125.47C127.769 125.396 130.098 124.759 132.377 123.577C134.033 122.713 135.759 121.707 137.159 120.207C137.469 119.874 137.746 119.497 137.991 119.164L138.015 119.132C138.123 118.985 138.233 118.837 138.345 118.691C138.406 118.612 138.432 118.51 138.416 118.408C138.399 118.309 138.342 118.222 138.244 118.158C138.219 118.145 137.627 117.827 137.086 117.617C133.462 116.217 129.804 116.074 126.314 117.198C125.172 117.566 124.097 118.117 123.05 118.879C124.986 116.628 126.779 114.161 128.406 111.506C128.424 111.478 128.47 111.403 128.485 111.389C128.627 111.298 128.773 111.212 128.918 111.127C129.179 110.975 129.448 110.817 129.701 110.628C129.915 110.469 129.975 110.465 130.191 110.604C130.497 110.802 130.852 110.905 131.161 110.986C132.973 111.45 134.799 111.219 136.818 110.271C138.663 109.406 140.082 108.038 141.34 106.69C143.171 104.723 144.367 102.949 145.105 101.106C145.26 100.719 145.371 100.319 145.486 99.9005C145.533 99.725 145.582 99.5494 145.633 99.3769C145.69 99.1917 145.591 98.9956 145.408 98.931L145.256 98.9194C144.51 98.9194 137.85 99.0288 133.955 102.808C133.107 103.631 132.348 104.505 131.654 105.461C133.195 102.198 134.502 98.7588 135.555 95.1888L135.57 95.1365C135.583 95.0928 135.602 95.0267 135.615 95.0088L136.634 93.6098C136.672 93.5538 136.676 93.5538 136.736 93.5538C136.763 93.5538 136.792 93.5556 136.825 93.5575L137.043 93.5706C137.801 93.6176 138.247 93.6109 138.614 93.5534C140.065 93.3245 141.374 92.594 142.617 91.3197C145.523 88.3394 147.523 84.6212 148.732 79.9536C148.861 79.4535 148.897 78.9486 148.936 78.413C148.953 78.1702 148.972 77.92 149 77.6616C149.012 77.5376 148.963 77.4192 148.87 77.3419Z" fill="white"/>
<path d="M50.2733 131.609C47.8566 131.075 45.453 130.297 42.9238 129.231C42.8936 129.217 42.8185 129.132 42.795 129.056C42.5429 128.196 42.4585 127.331 42.5362 126.409C43.0314 120.524 39.5271 114.323 34.2048 111.665C34.0917 111.608 33.9737 111.558 33.8377 111.502L33.7115 111.45C33.5916 111.399 33.4456 111.42 33.3489 111.498C33.2443 111.578 33.1924 111.71 33.2137 111.842L33.3593 112.744C33.4885 113.543 33.6151 114.324 33.7365 115.106L33.7671 115.311C34.1089 117.533 34.4622 119.831 35.1505 122.039C35.7715 124.031 36.7299 125.603 38.0628 126.808C35.2468 125.147 32.6228 123.152 30.2397 120.857C30.1897 120.809 30.1303 120.681 30.1217 120.576L30.0578 119.001C30.0575 118.945 30.0567 118.796 30.0885 118.723C31.2623 115.988 31.5629 112.91 31.0083 109.313C30.4735 105.844 28.9923 102.654 26.6055 99.8307C26.3262 99.5002 26.0797 99.3328 25.8728 99.3328C25.8223 99.3328 25.7768 99.3429 25.7409 99.3616C25.6311 99.4161 25.5568 99.5218 25.5422 99.6439L25.4784 100.193C25.4291 100.601 25.3817 101.001 25.3391 101.403C25.2655 102.109 25.1848 102.815 25.1038 103.521L25.0922 103.622C24.8905 105.385 24.6814 107.207 24.5709 109.032C24.4424 111.161 24.4805 113.647 25.7387 115.947C25.7454 115.959 25.7514 115.971 25.7581 115.982C24.0092 113.795 22.4126 111.442 20.9882 108.948C20.8623 108.726 20.8515 108.531 20.875 108.249C20.9762 107.055 21.5312 106.085 22.1157 105.215C23.2447 103.529 23.9281 101.538 24.3318 98.7562C24.8961 94.8662 24.3262 90.9638 22.6389 87.1567C22.5926 87.0517 22.5384 86.9505 22.4806 86.8418L22.3487 86.5931C22.2856 86.4717 22.1508 86.3918 22.0085 86.3981C21.8666 86.4056 21.7415 86.4956 21.6899 86.6263C21.2806 87.6586 20.8847 88.6531 20.4915 89.6402L20.2401 90.271C19.4013 92.3777 18.4605 94.8374 17.9138 97.3751C17.5284 99.1659 17.5048 100.894 17.8428 102.54C16.5312 99.418 15.453 96.1191 14.6273 92.6986C14.6179 92.6605 14.6149 92.5619 14.6967 92.3344C15.0829 91.2775 15.7861 90.3192 16.6772 89.6361C18.6279 88.14 19.7344 86.0605 20.5594 84.2238C22.2486 80.4675 22.7069 76.477 21.9599 72.0234C21.9521 71.9767 21.9379 71.9304 21.9211 71.8799L21.9077 71.8396C21.8752 71.7399 21.8012 71.6592 21.7034 71.617C21.6078 71.5771 21.4875 71.5845 21.4132 71.6211C21.3385 71.6484 21.2253 71.6898 21.1518 71.7978C20.729 72.3625 20.2999 72.9324 19.8704 73.5019L19.7983 73.5979C18.7152 75.0361 17.5952 76.5225 16.5189 78.0033C15.2719 79.7142 14.3912 81.3772 13.8262 83.0877C13.5535 83.9138 13.3754 84.7089 13.2914 85.4813C12.9325 82.706 12.7289 79.8725 12.6845 77.0155C12.674 76.3335 12.7607 75.7916 13.2264 75.1982C13.7194 74.5655 14.1799 74.2122 14.8147 73.9792C17.4234 73.0261 19.0969 71.012 20.2633 69.3639C22.1474 66.6977 23.2525 63.5953 23.6417 59.8793C23.6831 59.4968 23.7066 59.1099 23.7309 58.7006L23.7369 58.6076C23.7485 58.4086 23.7608 58.2013 23.7765 57.9817C23.7862 57.836 23.7081 57.6994 23.5778 57.6332C23.4516 57.5698 23.2899 57.5884 23.1801 57.6814L22.8705 57.9466C22.7539 58.0459 22.6542 58.1311 22.5508 58.214C22.0537 58.6132 21.5547 59.0084 21.0547 59.4046L21.0024 59.4457C19.9047 60.3151 18.7694 61.2141 17.6852 62.1425C15.5815 63.9366 14.2269 65.7226 13.4221 67.7636C13.2891 68.1001 13.1726 68.4328 13.0725 68.7622C13.4034 65.519 13.9408 62.3251 14.6788 59.2265C14.7684 58.8474 14.8185 58.7361 15.0026 58.6756C15.1184 58.6364 15.2263 58.5609 15.3051 58.4676C15.8403 57.8592 16.545 57.7628 17.2277 57.749C19.5059 57.6956 21.3127 56.5592 22.7793 55.4544C26.3755 52.746 28.8515 45.8742 28.8515 45.6412C28.8515 45.5198 28.791 45.4066 28.6883 45.3383C28.5871 45.2715 28.4504 45.2621 28.3474 45.3081C27.5982 45.6259 26.849 45.9355 26.0733 46.2563C24.3666 46.964 22.6019 47.6953 20.9071 48.4949C19.2015 49.3019 17.8537 50.3812 16.8901 51.7093C17.8085 49.0999 18.8732 46.5416 20.0653 44.0831C20.2024 43.8179 20.8463 43.5363 21.7695 43.5363C22.0697 43.5363 22.3607 43.5684 22.612 43.6289C24.7811 44.1488 26.9319 43.8336 29.3124 42.6441C31.7478 41.4266 33.7683 39.436 35.4892 36.5569C35.5221 36.5013 35.5867 36.3314 35.6214 36.2361C35.6651 36.1196 35.6475 35.9911 35.5751 35.8937C35.5079 35.801 35.4003 35.7458 35.2633 35.7458C35.2621 35.7458 35.2614 35.7458 35.2603 35.7458L34.4005 35.7999C33.8736 35.8332 33.3619 35.8657 32.8503 35.8918L32.3039 35.9194C30.6726 36.0016 28.9852 36.086 27.3345 36.4793C25.4519 36.9319 24.0697 37.6269 23.0098 38.6577C24.2642 36.5696 25.6076 34.5828 27.0227 32.7218C27.0608 32.6725 27.2434 32.5971 27.3932 32.572C27.4678 32.5545 27.7397 32.4973 28.1012 32.4973C28.5808 32.4973 29.0006 32.5948 29.3565 32.7905C31.6178 33.8964 34.1574 33.9785 36.9147 33.0314C39.1764 32.2587 41.092 30.8235 42.7711 28.645C42.8256 28.5748 42.8749 28.4982 42.9197 28.4176C42.9709 28.3246 42.9742 28.2223 42.9294 28.1289C42.7995 27.8563 42.237 27.7282 42.0002 27.6856C41.4191 27.584 40.7607 27.4682 40.1079 27.3797C39.8087 27.3379 39.5092 27.2942 39.2089 27.2497L39.1705 27.2438C38.1531 27.0936 37.1015 26.9383 36.0419 26.8849C34.1059 26.7859 32.3868 27.181 30.9799 28.0557C31.9259 27.0488 32.8925 26.0935 33.8739 25.196C34.1843 24.913 34.5354 24.6276 35.0138 24.2695C35.0507 24.2411 35.1449 24.2078 35.2603 24.2011C38.651 24.0685 41.4725 22.5717 43.8851 19.6258C45.1994 18.0221 46.207 15.9994 46.9662 13.4419L46.9924 13.3541C47.0734 13.0852 47.1183 12.9373 46.9319 12.764C46.7881 12.6303 46.5349 12.6699 45.8768 12.9306C45.2793 13.1603 44.678 13.3832 44.0607 13.6122C42.8204 14.0719 41.5375 14.5473 40.2995 15.0844C38.2305 15.9837 36.5782 17.3469 35.3895 19.1354C34.4842 20.4963 34.1264 21.8636 34.2948 23.3082C34.2937 23.3242 34.2795 23.3627 34.2773 23.3672C32.1175 25.2319 30.053 27.3312 27.9332 29.8297C29.3468 27.6684 30.2681 25.18 30.7305 22.2953C31.1966 19.3871 31.2261 16.7986 30.8212 14.3823C30.7955 14.231 30.7607 14.0798 30.7163 13.8904L30.6502 13.5987C30.6203 13.4736 30.5262 13.3724 30.4026 13.3336C30.2789 13.297 30.1404 13.3295 30.0481 13.4172C29.9002 13.5565 29.7553 13.688 29.6138 13.8157L29.5141 13.9057C29.1518 14.2321 28.8097 14.5402 28.5001 14.8887C25.4918 18.2824 23.7373 21.8669 23.1364 25.8474C22.8626 27.6464 22.9761 29.178 23.4837 30.5284C23.6518 30.9758 23.9139 31.3754 24.175 31.7721C24.2945 31.9532 24.414 32.1351 24.5234 32.3218C24.6041 32.4559 24.6108 32.4906 24.6104 32.4843C24.5608 33.0165 24.4894 33.6095 24.3931 34.3214C24.389 34.3303 24.3755 34.3512 24.3326 34.408L24.2979 34.4562C22.6527 36.7429 21.1349 39.1537 19.7692 41.6488C20.3062 39.7852 20.7338 37.4264 20.7036 34.6855C20.667 31.3979 19.91 28.4658 18.3885 25.7204C18.3283 25.6136 18.2193 25.5441 18.0665 25.5337C17.9556 25.5337 17.8488 25.5886 17.779 25.6823C17.7334 25.7458 17.6871 25.8055 17.643 25.8623C17.5448 25.9893 17.4529 26.1095 17.3708 26.238C16.1592 28.1378 15.5094 30.2326 15.078 31.8456C14.2896 34.8039 13.9274 37.274 13.9378 39.6198C13.9438 41.6137 14.3072 43.1464 15.0818 44.4435C15.3227 44.8472 15.6259 45.2005 15.9307 45.556C16.0924 45.7446 16.2586 45.9385 16.4091 46.1371C16.5144 46.2753 16.5652 46.4161 16.5682 46.4946C16.588 46.9674 16.5775 47.448 16.5674 47.9126L16.5603 48.2338C16.5592 48.2891 16.5465 48.3526 16.5275 48.4011C15.555 50.7573 14.7001 53.2062 13.9711 55.7211C14.0783 54.8647 14.1388 54.0356 14.1541 53.2267C14.2422 48.6353 12.8339 44.535 9.96713 41.0382L9.36958 40.3103C9.30049 40.2248 9.19816 40.1762 9.08911 40.1762L9.02935 40.1814C8.90162 40.2027 8.79407 40.2913 8.74962 40.4119C8.6951 40.5572 8.64169 40.6942 8.58978 40.8268C8.48969 41.083 8.3952 41.3258 8.31528 41.5726C7.70018 43.4993 7.39841 45.6042 7.33717 48.3963L7.33605 48.4508C7.29011 50.4821 7.22699 53.2648 8.06132 55.9276C8.88258 58.549 10.3309 59.8737 10.6117 60.1116L10.6416 60.1385C11.4061 60.8208 11.9039 61.4449 12.007 61.8501C12.0485 62.0137 12.0907 62.1776 12.14 62.3397C12.3581 63.0609 12.2218 63.748 12.0746 64.4901C12.0014 64.8647 11.9252 65.2516 11.8987 65.6486C11.7934 67.2374 11.6642 68.853 11.5391 70.4152L11.5279 70.5597C11.4957 70.9582 11.4636 71.3567 11.4319 71.7552C11.1129 68.1804 9.92904 64.9308 7.89214 62.057C6.64476 60.2987 5.15761 58.7944 3.47102 57.5847C3.3982 57.5324 3.32164 57.4857 3.21931 57.4249C3.16963 57.3961 3.11212 57.3617 3.04228 57.318C2.93696 57.2549 2.80177 57.2493 2.69309 57.3024C2.5818 57.3565 2.50523 57.4667 2.49254 57.5914C2.46976 57.8174 2.44324 58.0362 2.41523 58.2633C2.35883 58.7283 2.30543 59.1675 2.30319 59.6186C2.27817 64.2952 3.26748 68.6774 5.24462 72.6422C5.79549 73.7484 6.52338 74.7052 7.40887 75.4873C8.2869 76.2585 9.23438 76.7134 10.3036 76.8769C10.3272 76.8811 10.3832 76.915 10.3918 76.9218C10.4496 77.0379 10.5098 77.1544 10.5699 77.2713C10.7835 77.684 11.0042 78.1109 11.114 78.5389C11.2055 78.9008 11.2055 79.2963 11.2055 79.7153C11.2055 79.8688 11.2055 80.0234 11.2104 80.175C11.3131 83.7977 11.4479 85.0593 12.0276 88.2961C11.6739 87.3337 11.2298 86.3686 10.6566 85.4402C8.33507 81.6827 5.3858 79.1323 1.64028 77.644C1.40201 77.5481 1.16299 77.479 0.885877 77.3983L0.830603 77.3819C0.718189 77.349 0.599053 77.3139 0.4717 77.2751C0.356672 77.2373 0.225585 77.2631 0.131844 77.3408C0.0384773 77.4181 -0.010447 77.5365 0.00187742 77.6597C0.0295141 77.9167 0.0485609 78.1665 0.0661139 78.4104C0.104581 78.9452 0.140808 79.4501 0.270401 79.9498C1.47894 84.6178 3.47924 88.3357 6.3852 91.3163C7.62772 92.5906 8.9371 93.3211 10.388 93.5501C10.754 93.6072 11.2014 93.6143 11.9588 93.5672L12.1769 93.5542C12.2102 93.5523 12.2393 93.5504 12.2658 93.5504C12.3256 93.5504 12.3304 93.5504 12.3719 93.6117L13.3866 95.0051C13.3997 95.0234 13.4187 95.0895 13.4318 95.1351L13.4467 95.1851C14.4999 98.7555 15.8067 102.194 17.3476 105.458C16.6541 104.501 15.8941 103.627 15.047 102.805C11.1518 99.0255 4.49209 98.916 3.74552 98.916L3.65253 98.9168L3.59389 98.9276C3.4109 98.9926 3.31193 99.1883 3.36832 99.3724C3.42023 99.5461 3.46878 99.7216 3.52443 99.9278C3.63087 100.315 3.74141 100.715 3.8964 101.102C4.63438 102.946 5.8306 104.72 7.66171 106.687C8.91992 108.035 10.3384 109.402 12.1829 110.267C14.203 111.215 16.027 111.447 17.841 110.982C18.1494 110.901 18.5042 110.799 18.8094 110.601C19.0267 110.461 19.0861 110.466 19.2997 110.625C19.5529 110.813 19.8222 110.971 20.0836 111.124C20.2282 111.209 20.3738 111.295 20.5098 111.381C20.5314 111.399 20.5777 111.475 20.5949 111.503C22.2225 114.157 24.0155 116.624 25.9516 118.875C24.9044 118.113 23.8291 117.562 22.6871 117.195C19.197 116.07 15.5389 116.213 11.9159 117.614C11.3751 117.824 10.7824 118.141 10.7428 118.163C10.6599 118.218 10.6028 118.306 10.5848 118.407C10.5692 118.507 10.5949 118.608 10.6554 118.686C10.7686 118.833 10.878 118.981 10.9863 119.128L11.0102 119.16C11.2548 119.493 11.532 119.87 11.8427 120.204C13.2421 121.704 14.9679 122.71 16.6246 123.573C18.9027 124.755 21.2324 125.392 23.5494 125.467C23.6585 125.47 23.7675 125.473 23.8762 125.473C26.0076 125.473 27.6714 124.77 28.9539 123.333C28.9696 123.322 29.0252 123.301 29.0558 123.301C29.5458 123.336 30.0115 123.407 30.3596 123.465C30.4145 123.475 30.4821 123.507 30.5243 123.546C32.6669 125.442 34.9361 127.107 37.3065 128.524C36.9472 128.418 36.5771 128.325 36.1984 128.251C33.6652 127.764 31.08 128.069 28.2413 129.197C26.3262 129.961 24.5451 131.082 22.7961 132.626C22.652 132.752 22.6318 132.97 22.7506 133.121C23.3694 133.909 24.1746 134.35 24.8808 134.677C26.6033 135.477 28.5475 135.989 30.8268 136.244C30.8335 136.245 31.5659 136.308 32.593 136.308C33.3343 136.308 34.0241 136.275 34.6422 136.209C35.233 136.147 35.8223 136.046 36.3941 135.909C39.0203 135.269 40.7999 133.955 41.8195 131.914C41.8378 131.896 41.9162 131.851 42.0156 131.826C42.4895 131.709 42.916 131.626 43.3216 131.572C43.4172 131.556 43.5363 131.582 43.6865 131.643C45.5 132.341 47.4193 132.924 49.3871 133.373C49.4147 133.379 49.4435 133.383 49.4722 133.383C49.6044 133.383 49.7262 133.31 49.7904 133.191C49.9783 132.842 50.2072 132.506 50.4705 132.194C50.553 132.096 50.5777 131.965 50.537 131.844C50.4981 131.727 50.3995 131.638 50.2733 131.609Z" fill="white"/>
<path d="M92.2135 83.4111L107.219 68.7838C107.728 68.2879 107.912 67.5454 107.692 66.8698C107.472 66.1935 106.888 65.7005 106.185 65.5985L85.4485 62.5873L76.1735 43.797C75.859 43.1595 75.2099 42.7561 74.4992 42.7561C73.7885 42.7561 73.139 43.1602 72.8249 43.797L63.5532 62.5873L42.8138 65.5985C42.1105 65.7005 41.5261 66.1938 41.3065 66.8698C41.0865 67.5454 41.2699 68.2879 41.7789 68.7838L56.7848 83.4111L53.2444 104.064C53.1241 104.764 53.4121 105.472 53.9872 105.889C54.5616 106.307 55.3235 106.363 55.9535 106.032L74.4999 96.2823L93.0464 106.032C93.3194 106.175 93.6178 106.246 93.9147 106.246C94.302 106.246 94.687 106.126 95.0123 105.889C95.5874 105.472 95.8758 104.764 95.7551 104.064L92.2135 83.4111Z" fill="white"/>
</g>
<defs>
<clipPath id="clip0_2863_718">
<rect width="149" height="149" fill="white"/>
</clipPath>
</defs>
</svg>
